<svg viewBox="0 0 498.723 367.185" xmlns="http://www.w3.org/2000/svg" xmlns:xlink="http://www.w3.org/1999/xlink" width="498.722900" height="367.185181" fill="none" customFrame="#000000">
	<g id="Background">
		<path id="Rectangle 380" d="M65.7234 353.185L65.7234 291.185C65.7234 283.453 71.9914 277.185 79.7234 277.185L141.723 277.185C149.455 277.185 155.723 283.453 155.723 291.185L155.723 353.185C155.723 360.917 149.455 367.185 141.723 367.185L79.7234 367.185C71.9914 367.185 65.7234 360.917 65.7234 353.185Z" opacity="0.189999998" fill="rgb(158,203,255)" fill-rule="evenodd" />
		<path id="Intersection 8" d="M0.00467998 1.07281C0.00467998 0.713416 0.00613997 0.354013 0.00955995 -0.0046503L248.968 -0.0046503C248.971 0.354013 248.972 0.713416 248.972 1.07281C248.972 69.5169 193.239 125.001 124.488 125.001C55.7383 125.001 0.00467998 69.5169 0.00467998 1.07281Z" opacity="0.209999993" fill="rgb(245,61,107)" fill-rule="evenodd" transform="matrix(6.12323e-17,-1,1,6.12323e-17,321.253,277.154)" />
		<path id="Rectangle 382" d="M-0.00169 13.0045L-0.00169 3.00451C-0.00169 1.34766 1.34146 0.00451 2.99831 0.00451L12.9983 0.00451C14.6552 0.00451 15.9983 1.34766 15.9983 3.00451L15.9983 13.0045C15.9983 14.6614 14.6552 16.0045 12.9983 16.0045L2.99831 16.0045C1.34146 16.0045 -0.00169 14.6614 -0.00169 13.0045Z" fill="rgb(255,103,1)" fill-rule="evenodd" transform="matrix(-0.62932,-0.777146,0.777146,-0.62932,10.0691,174.831)" />
		<path id="Rectangle 383" d="M-0.0028 12.9973L-0.0028 2.99726C-0.0028 1.34041 1.34035 -0.00274 2.9972 -0.00274L12.9972 -0.00274C14.6541 -0.00274 15.9972 1.34041 15.9972 2.99726L15.9972 12.9973C15.9972 14.6541 14.6541 15.9973 12.9972 15.9973L2.9972 15.9973C1.34035 15.9973 -0.0028 14.6541 -0.0028 12.9973Z" fill="rgb(112,71,235)" fill-rule="evenodd" transform="matrix(-0.994522,-0.104528,0.104528,-0.994522,497.051,17.5848)" />
	</g>
</svg>
