<svg viewBox="0 0 1366 768" xmlns="http://www.w3.org/2000/svg" xmlns:xlink="http://www.w3.org/1999/xlink" width="1366.000000" height="768.000000" fill="none" customFrame="#000000">
	<g id="Background">
		<path id="Rectangle 396" d="M0 768L0 0L1366 0L1366 768L0 768Z" fill="rgb(12.75,12.75,12.75)" fill-rule="evenodd" />
		<path id="Intersection 4" d="M0.00680953 64.9998C0.00521964 64.8134 0.0044097 64.6264 0.0044097 64.4396C0.0044097 28.8504 28.8738 9.99998e-06 64.4857 9.99998e-06C100.098 9.99998e-06 128.967 28.8504 128.967 64.4396C128.967 64.6264 128.966 64.8134 128.964 64.9998L0.00680953 64.9998Z" opacity="0.209999993" fill="rgb(129.875,94,237.5)" fill-rule="evenodd" transform="matrix(-1,-1.22465e-16,1.22465e-16,-1,700.486,65)" />
		<path id="Intersection 7" d="M407.019 108.939C407.019 84.6717 426.71 64.9996 451 64.9996C475.29 64.9996 494.981 84.6717 494.981 108.939C494.981 133.206 475.29 152.878 451 152.878C426.71 152.878 407.019 133.206 407.019 108.939Z" opacity="0.209999993" fill="rgb(60.7692,211.731,126.186)" fill-rule="evenodd" />
		<path id="Rectangle 351" d="M-2e-05 13L-2e-05 2.99998C-2e-05 1.34313 1.34313 -2e-05 2.99998 -2e-05L13 -2e-05C14.6568 -2e-05 16 1.34313 16 2.99998L16 13C16 14.6568 14.6568 16 13 16L2.99998 16C1.34313 16 -2e-05 14.6568 -2e-05 13Z" fill="rgb(87.5,143.333,255)" fill-rule="evenodd" transform="matrix(0.866025,0.5,-0.5,0.866025,685.072,467.072)" />
		<path id="Rectangle 352" d="M0.00047 13L0.00047 2.99998C0.00047 1.34313 1.34362 -2e-05 3.00047 -2e-05L13.0005 -2e-05C14.6573 -2e-05 16.0005 1.34313 16.0005 2.99998L16.0005 13C16.0005 14.6568 14.6573 16 13.0005 16L3.00047 16C1.34362 16 0.00047 14.6568 0.00047 13Z" fill="rgb(255,117.9,26.5)" fill-rule="evenodd" transform="matrix(0.866025,-0.5,0.5,0.866025,1188.07,180.072)" />
		<path id="Rectangle 353" d="M0.00011 12.9999L0.00011 2.99988C0.00011 1.34303 1.34326 -0.00012 3.00011 -0.00012L13.0001 -0.00012C14.657 -0.00012 16.0001 1.34303 16.0001 2.99988L16.0001 12.9999C16.0001 14.6567 14.657 15.9999 13.0001 15.9999L3.00011 15.9999C1.34326 15.9999 0.00011 14.6567 0.00011 12.9999Z" fill="rgb(129.875,94,237.5)" fill-rule="evenodd" transform="matrix(0.258819,-0.965926,0.965926,0.258819,1267.2,685.657)" />
		<path id="Rectangle 354" d="M870 174L870 170C870 168.343 871.343 167 873 167L877 167C878.657 167 880 168.343 880 170L880 174C880 175.657 878.657 177 877 177L873 177C871.343 177 870 175.657 870 174Z" fill="rgb(39.7714,42.3193,90.7286)" fill-rule="evenodd" />
	</g>
</svg>
