<svg viewBox="0 0 20 20" xmlns="http://www.w3.org/2000/svg" xmlns:xlink="http://www.w3.org/1999/xlink" width="20.000000" height="20.000000" fill="none" customFrame="#000000">
	<path id="Icon awesome-phone-alt" d="M19.4295 14.1327L15.0545 12.2577C14.6705 12.094 14.2247 12.2039 13.9607 12.5272L12.0232 14.8944C8.98244 13.4607 6.53533 11.0136 5.10163 7.97286L7.46885 6.03533C7.79284 5.77182 7.90284 5.32544 7.73839 4.94157L5.86337 0.56652C5.68215 0.15104 5.23114 -0.07692 4.78914 0.02354L0.72659 0.961049C0.3012 1.05928 -8e-05 1.43815 2e-05 1.87473C2e-05 11.8944 8.12121 19.9999 18.1252 19.9999C18.562 20.0002 18.9411 19.6989 19.0393 19.2734L19.9768 15.2108C20.0766 14.7667 19.847 14.3143 19.4296 14.1327L19.4295 14.1327Z" fill="rgb(45,202,114)" fill-rule="evenodd" />
</svg>
