<svg viewBox="0 0 112.463 28.8867" xmlns="http://www.w3.org/2000/svg" xmlns:xlink="http://www.w3.org/1999/xlink" width="112.462891" height="28.886719" fill="none" customFrame="#000000">
	<g id="allianz-1">
		<path id="Path 2342" d="M99.9955 6.89295L99.9955 22.0486L96.0377 22.0486L96.0377 7.94122C96.0377 7.53705 95.9853 7.34836 95.8234 7.16084C95.7139 7.05252 95.5811 6.97099 95.446 6.97099L95.0686 6.94537L94.8531 6.94537L94.8531 5.27629L98.3788 5.27629C99.5913 5.27629 99.9955 5.68045 99.9955 6.89295ZM101.771 22.0486L101.771 8.99181L104.086 8.99181C105.272 8.99181 105.703 9.44956 105.703 10.6073L105.703 22.0486L101.771 22.0486ZM94.2883 8.99182L94.2883 22.0474L90.3281 22.0474L90.3281 10.6073C90.3281 9.44956 90.787 8.99182 91.9448 8.99182L94.2883 8.99182ZM109.608 14.43C109.608 21.2414 104.707 26.1962 98.0294 26.1962C91.3263 26.1962 86.4542 21.2414 86.4542 14.43C86.4542 7.64654 91.3275 2.69289 98.0294 2.69289C104.707 2.69289 109.608 7.64654 109.608 14.43ZM98.0294 0C106.297 0 112.463 6.16499 112.463 14.43C112.463 22.7218 106.297 28.8868 98.0294 28.8868C89.7655 28.8868 83.5726 22.7218 83.5726 14.43C83.5726 6.16498 89.7655 0 98.0294 0ZM71.4395 19.9486L77.3121 19.9486L77.3121 22.7766L66.7304 22.7766L66.7304 20.0033L72.3841 12.0609L69.3674 12.0609C68.6953 12.0609 68.3727 12.3579 68.3727 12.9764L68.3727 13.2175L66.8108 13.2175L66.8108 10.7692C66.8108 9.7722 67.2662 9.31562 68.2644 9.31562L77.0407 9.31562L77.0407 12.0889L71.4395 19.9486ZM57.2844 13.6776L57.2844 22.7766L57.2844 22.7754L53.0831 22.7754L53.0831 11.8722C53.0831 11.1722 52.7873 10.8496 52.0861 10.8496L51.8438 10.8496L51.8438 9.3156L55.8273 9.3156C56.6915 9.3156 57.1201 9.74539 57.1201 10.5817L57.1201 11.1198C58.6821 9.66619 59.841 9.1537 61.4809 9.1537C62.5863 9.1537 63.447 9.47867 64.0119 10.0983C64.6863 10.8263 64.847 11.4983 64.847 13.6251L64.847 22.7777L60.6481 22.7777L60.6481 14.2448C60.6481 12.8972 60.4338 12.5466 59.5451 12.5466C58.7112 12.5466 57.9844 12.8972 57.2844 13.6776ZM45.9025 16.3157L45.9025 18.9271C45.2025 19.6527 44.3417 20.0848 43.6138 20.0848C42.8614 20.0848 42.5923 19.7074 42.5923 18.7104C42.5923 17.7134 42.8066 17.2568 43.5614 16.961C44.1263 16.7187 44.8531 16.5044 45.9025 16.3157ZM44.3685 12.1157C43.1572 12.1157 41.6221 12.4919 40.2221 13.1639L39.2798 10.5805C40.5447 9.95972 41.084 9.74425 42.1334 9.50198C43.1852 9.25971 44.2614 9.12577 45.3632 9.12577C48.7829 9.12577 49.9675 10.3103 49.9675 13.73L49.9675 20.1361C49.9675 20.9992 50.2365 21.3218 50.9645 21.3218L51.152 21.3218L51.152 22.7754L47.3025 22.7754C46.4686 22.7754 46.0376 22.3456 46.0376 21.5105L46.0376 21.3218C45.1757 21.995 44.8263 22.2117 44.2334 22.4795C43.5614 22.7498 42.8066 22.9093 41.9727 22.9093C39.6839 22.9093 38.5798 21.6689 38.5798 19.1123C38.5798 17.0949 39.3881 15.7753 41.084 15.1021C41.5984 14.8881 42.1298 14.7174 42.6727 14.5919C43.6418 14.3764 44.1799 14.2669 45.9025 13.9991L45.9025 13.702C45.9025 12.5198 45.4983 12.1157 44.3685 12.1157ZM36.729 6.46083C36.729 7.67217 35.8415 8.40013 34.3063 8.40013C32.798 8.40013 31.8837 7.67216 31.8837 6.46083C31.8837 5.2495 32.798 4.5227 34.3063 4.5227C35.8415 4.5227 36.729 5.2495 36.729 6.46083ZM36.6486 10.6865L36.6486 22.7766L36.6486 22.7754L32.4497 22.7754L32.4497 11.8722C32.4497 11.1722 32.1539 10.8496 31.4539 10.8496L31.2104 10.8496L31.2104 9.31562L35.3033 9.31562C36.1373 9.31562 36.6486 9.82694 36.6486 10.6865ZM29.3585 6.19178L29.3585 22.7754L25.1317 22.7754L25.1317 7.37632C25.1317 6.67632 24.8358 6.38047 24.1358 6.38047L23.8667 6.38047L23.8667 4.81855L28.0144 4.81855C28.846 4.81855 29.3585 5.33104 29.3585 6.19178ZM22.1779 6.19178L22.1779 22.7754L17.951 22.7754L17.951 7.37632C17.951 6.67632 17.6552 6.38047 16.9552 6.38047L16.6861 6.38047L16.6861 4.81855L20.8314 4.81855C21.6677 4.81855 22.1779 5.33104 22.1779 6.19178ZM10.1228 15.5074L6.32687 15.5074L8.34537 8.91029L10.1228 15.5074ZM5.65366 18.4425L4.36196 22.7766L0 22.7766L4.71255 8.6424C4.98161 7.83407 5.06314 7.53823 5.06314 7.18764C5.06314 6.65069 4.68576 6.38047 3.98575 6.38047L3.42085 6.38047L3.42085 4.81855L10.1228 4.81855C11.1454 4.81855 11.7383 5.27629 12.0073 6.24652L16.7187 22.7766L11.9805 22.7766L10.7692 18.4425L5.65366 18.4425Z" fill="rgb(39.4625,107.864,186.038)" fill-rule="evenodd" />
	</g>
</svg>
