<svg viewBox="0 0 100.769 20" xmlns="http://www.w3.org/2000/svg" xmlns:xlink="http://www.w3.org/1999/xlink" width="100.769287" height="20.000000" fill="none" customFrame="#000000">
	<path id="asus-logo" d="M70.3189 20L89.3058 20C94.0713 19.7186 94.7467 15.197 94.7467 15.197C94.8128 14.7345 94.8329 14.3036 94.8329 13.9504C94.8329 13.4009 94.7842 13.0394 94.7842 13.0394C94.6529 11.97 93.1332 8.74296 89.8874 8.42401C87.9737 8.23639 70.6567 7.22326 70.6567 7.22326C71.1632 9.00562 71.8574 9.54971 72.3828 10.0375C73.5835 11.2007 75.3659 11.4634 75.3659 11.4634C75.8161 11.5009 88.7617 12.5891 88.7617 12.5891C89.1745 12.6079 90.0188 12.6454 90.0188 13.6585C90.0188 13.9587 89.8687 14.2777 89.6811 14.4465C89.6811 14.4465 89.2308 14.6904 88.7992 14.6904L70.3752 14.6904L70.3189 20ZM17.955 19.9625L42.758 19.9625C47.0732 19.0994 47.5235 15.1595 47.5235 15.1595C47.6222 14.6032 47.6479 14.094 47.6479 13.7142C47.6479 13.2999 47.6173 13.0394 47.6173 13.0394C47.4859 12.2514 45.985 8.76173 42.758 8.46154C40.8255 8.27392 23.621 6.90432 23.621 6.90432C23.9587 8.6304 24.728 9.5122 25.2533 10C26.454 11.1445 28.349 11.4822 28.349 11.4822L41.6135 12.5891C42.0213 12.6077 42.7771 12.7178 42.7771 13.6975C42.7771 13.7094 42.777 13.7214 42.7767 13.7336C42.7767 13.8649 42.6642 14.7467 41.6886 14.7467L23.1332 14.7467L23.1332 6.86678L17.9737 6.49155C17.955 6.49155 17.955 19.9625 17.955 19.9625ZM70.2814 7.22327L65.0657 6.90432L65.0657 13.0394C65.0657 13.0394 65.0469 14.803 63.3396 14.803L54.409 14.803C54.409 14.803 52.8893 14.6717 52.8893 13.0582L52.8893 6.07881L47.636 5.70358L47.636 15.1032C48.4803 19.606 52.5516 19.9625 52.5516 19.9625C52.5516 19.9625 52.9643 19.9813 53.0394 20L65.1407 20C65.1407 20 70.3189 19.5872 70.3189 14.5966L70.2814 7.22327ZM70.2814 0.01876L64.9906 0.01876L64.9906 5.30957L70.2814 5.30957L70.2814 0.01876ZM52.8893 0.01876L47.5797 0.01876L47.5797 5.30957L52.8893 5.30957L52.8893 0.01876ZM94.878 5.30957L94.878 0L75.9099 0C73.5084 0.15009 72.439 1.31332 71.651 2.13884C70.8067 3.02064 70.3377 4.87805 70.3377 4.87805L70.3377 5.30957L94.878 5.30957ZM46.6604 5.30957L46.6604 0L28.9306 0C26.5103 0.15009 25.4597 1.31332 24.6717 2.13884C23.8274 3.02064 23.3583 4.87805 23.3583 4.87805L23.3583 0.03752L13.9212 0.03752C13.2083 0.03752 12.5328 0.33771 12.0263 1.05065C11.5009 1.74483 9.34334 5.30956 9.34334 5.30956L46.6604 5.30957ZM9.1182 5.62852L0 19.9625L6.22889 19.9625L15.0094 6.26642L9.1182 5.62852ZM98.0113 1.68855L98.0113 2.53283L98.7242 2.53283C98.8743 2.53283 98.9869 2.49531 99.0619 2.43902C99.1557 2.38274 99.1932 2.27017 99.1932 2.10131C99.1932 1.93246 99.1369 1.80113 99.0244 1.74484C98.9681 1.70731 98.8743 1.68855 98.7617 1.68855L98.0113 1.68855ZM97.7111 3.86492L98.03 3.86492L98.03 2.81426L98.743 2.81426C98.8555 2.81426 98.9493 2.81426 99.0244 2.85178C99.1182 2.90807 99.1745 3.02064 99.1933 3.17073L99.2308 3.58349L99.2308 3.77111C99.2495 3.80863 99.2495 3.8274 99.2683 3.84616L99.6623 3.84616L99.6623 3.78987C99.606 3.77111 99.5872 3.71482 99.5685 3.63978C99.5497 3.60226 99.5497 3.52721 99.5497 3.4334L99.531 3.11445C99.531 2.96436 99.4934 2.87055 99.4559 2.81426C99.3996 2.75797 99.3246 2.70169 99.2308 2.66417C99.3433 2.60788 99.4184 2.53284 99.4747 2.43903C99.531 2.34522 99.5497 2.23265 99.5497 2.08256C99.5497 1.80113 99.4372 1.61352 99.2308 1.50095C99.1182 1.44466 98.9681 1.4259 98.7993 1.4259L97.7298 1.4259L97.7111 3.86492ZM96.3227 2.53283C96.3227 3.7711 97.317 4.78424 98.5553 4.78424C99.1557 4.78424 99.6998 4.5591 100.113 4.12758C100.525 3.69606 100.769 3.13321 100.769 2.53283C100.769 1.93245 100.544 1.3696 100.113 0.93808C99.681 0.50656 99.1369 0.28142 98.5553 0.28142C97.3171 0.28142 96.3227 1.29455 96.3227 2.53283ZM98.5366 0.45028C97.4109 0.45028 96.4915 1.38836 96.4915 2.53283C96.4915 3.6773 97.4109 4.59662 98.5366 4.59662C99.0807 4.59662 99.5872 4.37148 99.9812 3.97748C100.375 3.58349 100.582 3.05816 100.582 2.51407C100.582 1.96998 100.375 1.44466 99.9812 1.05066C99.5872 0.67542 99.0807 0.45028 98.5366 0.45028Z" fill="rgb(0,96.2667,180.5)" fill-rule="evenodd" />
</svg>
