<svg viewBox="0 0 230 100" xmlns="http://www.w3.org/2000/svg" xmlns:xlink="http://www.w3.org/1999/xlink" width="230.000000" height="100.000000" fill="none" customFrame="#000000">
	<g id="Brand 3">
		<path id="Rectangle 359" d="M0 92L0 8C0 3.58172 3.58172 0 8 0L222 0C226.418 0 230 3.58172 230 8L230 92C230 96.4183 226.418 100 222 100L8 100C3.58172 100 0 96.4183 0 92Z" fill="rgb(24.4375,24.4375,24.4375)" fill-rule="evenodd" />
		<g id="chase">
			<path id="Path 2343" d="M155.057 40.7063C155.058 40.316 155.374 39.9999 155.765 40L155.765 40L162.179 40.0015L168.135 45.6561L155.057 45.6561L155.057 40.7063ZM148.608 52.8473C148.608 53.2375 148.924 53.5539 149.315 53.554L154.264 53.554L154.264 40.476L148.609 46.4314L148.608 52.8473ZM168.614 47.1535C168.614 46.9661 168.54 46.7864 168.407 46.6541C168.274 46.5218 168.095 46.4477 167.907 46.4483L162.958 46.4483L162.958 59.5253L168.612 53.5684L168.614 47.1535ZM162.163 59.2933C162.163 59.6828 161.848 59.9989 161.458 60L155.041 59.9986L149.086 54.3441L162.163 54.3441L162.163 59.2933Z" fill="rgb(6.89474,101.295,189.605)" fill-rule="evenodd" />
			<path id="Path 2344" d="M115.987 42.3801C114.145 42.3801 112.26 43.486 112.26 46.3324L112.26 47.0636C112.26 50.0291 114.076 51.1624 115.891 51.1706L122.267 51.1706C122.929 51.1706 123.468 51.2802 123.468 52.4001L123.467 53.6943C123.45 54.6977 122.947 54.9298 122.244 54.9298L113.857 54.9298L112.138 57.6085L122.441 57.6085C124.926 57.6085 126.613 56.3731 126.613 53.5167L126.613 52.4674C126.613 49.7064 125.046 48.4035 122.616 48.4035L116.528 48.4035C115.852 48.4035 115.383 48.2182 115.383 47.2185L115.382 46.1661C115.382 45.3147 115.705 45.0036 116.492 45.0036L124.479 45.0006L126.149 42.3772L115.987 42.3801ZM61 47.1413C61 44.3211 62.6104 42.3845 65.7989 42.3845L65.7989 42.3845L75.4008 42.3847L73.69 45.0813L66.4167 45.0813C64.7323 45.0813 64.1691 45.7305 64.1691 47.3946L64.1691 52.5513C64.1691 54.2725 64.8387 54.828 66.3757 54.828L73.6145 54.828L75.3953 57.6106L65.7824 57.6126C63.0742 57.6126 61 56.0886 61 52.8259L61 47.1413ZM88.667 48.4254L88.667 42.3864L91.7361 42.3864L91.7361 57.6122L88.667 57.6122L88.667 51.0706L80.2526 51.0706L80.2526 57.6122L77.1891 57.6122L77.1891 42.3852L80.2526 42.3864L80.2526 48.4254L88.667 48.4254ZM129.435 42.3864L129.435 57.6095L142.88 57.6087L141.176 54.9298L132.509 54.9298L132.509 51.0706L140.902 51.0706L140.902 48.489L132.509 48.489L132.509 45.0036L141.162 45.0036L142.831 42.3864L129.435 42.3864ZM93.4203 57.6106L100.641 42.3887L103.677 42.3885L110.913 57.6106L107.487 57.6106L106.085 54.467L98.2396 54.467L96.8334 57.6106L93.4203 57.6106ZM104.928 51.876L102.154 45.5483L99.3967 51.876L104.928 51.876Z" fill="rgb(255,255,255)" fill-rule="evenodd" />
		</g>
	</g>
</svg>
