<svg viewBox="0 0 230 100" xmlns="http://www.w3.org/2000/svg" xmlns:xlink="http://www.w3.org/1999/xlink" width="230.000000" height="100.000000" fill="none" customFrame="#000000">
	<g id="Brand 1">
		<path id="Rectangle 357" d="M0 92L0 8C0 3.58172 3.58172 0 8 0L222 0C226.418 0 230 3.58172 230 8L230 92C230 96.4183 226.418 100 222 100L8 100C3.58172 100 0 96.4183 0 92Z" fill="rgb(24.4375,24.4375,24.4375)" fill-rule="evenodd" />
		<path id="asus-logo" d="M135.319 60L154.306 60C159.071 59.7186 159.747 55.197 159.747 55.197C159.813 54.7345 159.833 54.3036 159.833 53.9504C159.833 53.4009 159.784 53.0394 159.784 53.0394C159.653 51.97 158.133 48.743 154.887 48.424C152.974 48.2364 135.657 47.2233 135.657 47.2233C136.163 49.0056 136.857 49.5497 137.383 50.0375C138.583 51.2007 140.366 51.4634 140.366 51.4634C140.816 51.5009 153.762 52.5891 153.762 52.5891C154.174 52.6079 155.019 52.6454 155.019 53.6585C155.019 53.9587 154.869 54.2777 154.681 54.4465C154.681 54.4465 154.231 54.6904 153.799 54.6904L135.375 54.6904L135.319 60ZM82.955 59.9625L107.758 59.9625C112.073 59.0994 112.523 55.1595 112.523 55.1595C112.622 54.6032 112.648 54.094 112.648 53.7142C112.648 53.2999 112.617 53.0394 112.617 53.0394C112.486 52.2514 110.985 48.7617 107.758 48.4615C105.826 48.2739 88.621 46.9043 88.621 46.9043C88.9587 48.6304 89.728 49.5122 90.2533 50C91.454 51.1445 93.349 51.4822 93.349 51.4822L106.614 52.5891C107.021 52.6077 107.777 52.7178 107.777 53.6975C107.777 53.7094 107.777 53.7214 107.777 53.7336C107.777 53.8649 107.664 54.7467 106.689 54.7467L88.1332 54.7467L88.1332 46.8668L82.9737 46.4916C82.955 46.4916 82.955 59.9625 82.955 59.9625ZM135.281 47.2233L130.066 46.9043L130.066 53.0394C130.066 53.0394 130.047 54.803 128.34 54.803L119.409 54.803C119.409 54.803 117.889 54.6717 117.889 53.0582L117.889 46.0788L112.636 45.7036L112.636 55.1032C113.48 59.606 117.552 59.9625 117.552 59.9625C117.552 59.9625 117.964 59.9813 118.039 60L130.141 60C130.141 60 135.319 59.5872 135.319 54.5966L135.281 47.2233ZM135.281 40.0188L129.991 40.0188L129.991 45.3096L135.281 45.3096L135.281 40.0188ZM117.889 40.0188L112.58 40.0188L112.58 45.3096L117.889 45.3096L117.889 40.0188ZM159.878 45.3096L159.878 40L140.91 40C138.508 40.1501 137.439 41.3133 136.651 42.1388C135.807 43.0206 135.338 44.8781 135.338 44.8781L135.338 45.3096L159.878 45.3096ZM111.66 45.3096L111.66 40L93.9306 40C91.5103 40.1501 90.4597 41.3133 89.6717 42.1388C88.8274 43.0206 88.3584 44.8781 88.3584 44.8781L88.3584 40.0375L78.9212 40.0375C78.2083 40.0375 77.5328 40.3377 77.0263 41.0507C76.5009 41.7448 74.3433 45.3096 74.3433 45.3096L111.66 45.3096ZM74.1182 45.6285L65 59.9625L71.2289 59.9625L80.0094 46.2664L74.1182 45.6285ZM163.011 41.6885L163.011 42.5328L163.724 42.5328C163.874 42.5328 163.987 42.4953 164.062 42.439C164.156 42.3827 164.193 42.2702 164.193 42.1013C164.193 41.9325 164.137 41.8011 164.024 41.7448C163.968 41.7073 163.874 41.6885 163.762 41.6885L163.011 41.6885ZM162.711 43.8649L163.03 43.8649L163.03 42.8143L163.743 42.8143C163.856 42.8143 163.949 42.8143 164.024 42.8518C164.118 42.9081 164.174 43.0206 164.193 43.1707L164.231 43.5835L164.231 43.7711C164.25 43.8086 164.25 43.8274 164.268 43.8462L164.662 43.8462L164.662 43.7899C164.606 43.7711 164.587 43.7148 164.568 43.6398C164.55 43.6023 164.55 43.5272 164.55 43.4334L164.531 43.1144C164.531 42.9644 164.493 42.8706 164.456 42.8143C164.4 42.758 164.325 42.7017 164.231 42.6642C164.343 42.6079 164.418 42.5328 164.475 42.439C164.531 42.3452 164.55 42.2327 164.55 42.0826C164.55 41.8011 164.437 41.6135 164.231 41.5009C164.118 41.4447 163.968 41.4259 163.799 41.4259L162.73 41.4259L162.711 43.8649ZM161.323 42.5328C161.323 43.7711 162.317 44.7842 163.555 44.7842C164.156 44.7842 164.7 44.5591 165.113 44.1276C165.525 43.6961 165.769 43.1332 165.769 42.5328C165.769 41.9324 165.544 41.3696 165.113 40.9381C164.681 40.5066 164.137 40.2814 163.555 40.2814C162.317 40.2814 161.323 41.2945 161.323 42.5328ZM163.537 40.4503C162.411 40.4503 161.492 41.3884 161.492 42.5328C161.492 43.6773 162.411 44.5966 163.537 44.5966C164.081 44.5966 164.587 44.3715 164.981 43.9775C165.375 43.5835 165.582 43.0582 165.582 42.5141C165.582 41.97 165.375 41.4447 164.981 41.0507C164.587 40.6754 164.081 40.4503 163.537 40.4503Z" fill="rgb(0,96.2667,180.5)" fill-rule="evenodd" />
	</g>
</svg>
