<svg viewBox="0 0 230 100" xmlns="http://www.w3.org/2000/svg" xmlns:xlink="http://www.w3.org/1999/xlink" width="230.000000" height="100.000000" fill="none" customFrame="#000000">
	<g id="Brand 2">
		<path id="Rectangle 358" d="M0 92L0 8C0 3.58172 3.58172 0 8 0L222 0C226.418 0 230 3.58172 230 8L230 92C230 96.4183 226.418 100 222 100L8 100C3.58172 100 0 96.4183 0 92Z" fill="rgb(24.4375,24.4375,24.4375)" fill-rule="evenodd" />
		<g id="allianz-1">
			<path id="Path 2342" d="M158.764 42.2924L158.764 57.448L154.806 57.448L154.806 43.3406C154.806 42.9365 154.754 42.7478 154.592 42.5603C154.482 42.4519 154.35 42.3704 154.215 42.3704L153.837 42.3448L153.622 42.3448L153.622 40.6757L157.147 40.6757C158.36 40.6757 158.764 41.0799 158.764 42.2924ZM160.539 57.448L160.539 44.3912L162.855 44.3912C164.04 44.3912 164.471 44.849 164.471 46.0067L164.471 57.448L160.539 57.448ZM153.057 44.3912L153.057 57.4468L149.097 57.4468L149.097 46.0067C149.097 44.849 149.556 44.3912 150.713 44.3912L153.057 44.3912ZM168.377 49.8294C168.377 56.6408 163.475 61.5956 156.798 61.5956C150.095 61.5956 145.223 56.6408 145.223 49.8294C145.223 43.046 150.096 38.0923 156.798 38.0923C163.475 38.0923 168.377 43.046 168.377 49.8294ZM156.798 35.3994C165.065 35.3994 171.231 41.5644 171.231 49.8294C171.231 58.1212 165.065 64.2862 156.798 64.2862C148.534 64.2862 142.341 58.1212 142.341 49.8294C142.341 41.5644 148.534 35.3994 156.798 35.3994ZM130.208 55.348L136.081 55.348L136.081 58.176L125.499 58.176L125.499 55.4027L131.153 47.4603L128.136 47.4603C127.464 47.4603 127.141 47.7573 127.141 48.3758L127.141 48.6169L125.579 48.6169L125.579 46.1686C125.579 45.1716 126.035 44.715 127.033 44.715L135.809 44.715L135.809 47.4883L130.208 55.348ZM116.053 49.077L116.053 58.176L116.053 58.1748L111.852 58.1748L111.852 47.2716C111.852 46.5716 111.556 46.249 110.855 46.249L110.612 46.249L110.612 44.715L114.596 44.715C115.46 44.715 115.889 45.1448 115.889 45.9811L115.889 46.5192C117.451 45.0656 118.61 44.5531 120.249 44.5531C121.355 44.5531 122.216 44.8781 122.78 45.4977C123.455 46.2257 123.616 46.8977 123.616 49.0246L123.616 58.1771L119.417 58.1771L119.417 49.6442C119.417 48.2966 119.202 47.946 118.314 47.946C117.48 47.946 116.753 48.2966 116.053 49.077ZM104.671 51.7151L104.671 54.3265C103.971 55.0521 103.11 55.4842 102.382 55.4842C101.63 55.4842 101.361 55.1069 101.361 54.1098C101.361 53.1128 101.575 52.6562 102.33 52.3604C102.895 52.1181 103.622 51.9038 104.671 51.7151ZM103.137 47.5151C101.926 47.5151 100.391 47.8913 98.9906 48.5633L98.0483 45.9799C99.3133 45.3591 99.8525 45.1437 100.902 44.9014C101.954 44.6591 103.03 44.5252 104.132 44.5252C107.551 44.5252 108.736 45.7097 108.736 49.1294L108.736 55.5355C108.736 56.3986 109.005 56.7212 109.733 56.7212L109.921 56.7212L109.921 58.1748L106.071 58.1748C105.237 58.1748 104.806 57.745 104.806 56.9099L104.806 56.7212C103.944 57.3944 103.595 57.6111 103.002 57.879C102.33 58.1492 101.575 58.3087 100.741 58.3087C98.4525 58.3087 97.3483 57.0683 97.3483 54.5117C97.3483 52.4944 98.1567 51.1747 99.8525 50.5015C100.367 50.2875 100.898 50.1168 101.441 49.9913C102.41 49.7758 102.948 49.6664 104.671 49.3985L104.671 49.1015C104.671 47.9192 104.267 47.5151 103.137 47.5151ZM95.4975 41.8602C95.4975 43.0716 94.61 43.7995 93.0749 43.7995C91.5665 43.7995 90.6522 43.0716 90.6522 41.8602C90.6522 40.6489 91.5665 39.9221 93.0749 39.9221C94.61 39.9221 95.4975 40.6489 95.4975 41.8602ZM95.4172 46.0859L95.4172 58.176L95.4172 58.1748L91.2183 58.1748L91.2183 47.2716C91.2183 46.5716 90.9224 46.249 90.2224 46.249L89.979 46.249L89.979 44.715L94.0719 44.715C94.9059 44.715 95.4172 45.2264 95.4172 46.0859ZM88.1271 41.5912L88.1271 58.1748L83.9002 58.1748L83.9002 42.7757C83.9002 42.0757 83.6044 41.7799 82.9044 41.7799L82.6353 41.7799L82.6353 40.218L86.7829 40.218C87.6146 40.218 88.1271 40.7305 88.1271 41.5912ZM80.9464 41.5912L80.9464 58.1748L76.7196 58.1748L76.7196 42.7757C76.7196 42.0757 76.4237 41.7799 75.7237 41.7799L75.4547 41.7799L75.4547 40.218L79.6 40.218C80.4363 40.218 80.9464 40.7305 80.9464 41.5912ZM68.8913 50.9068L65.0954 50.9068L67.1139 44.3097L68.8913 50.9068ZM64.4222 53.842L63.1305 58.176L58.7686 58.176L63.4811 44.0418C63.7502 43.2335 63.8317 42.9376 63.8317 42.5871C63.8317 42.0501 63.4543 41.7799 62.7543 41.7799L62.1894 41.7799L62.1894 40.218L68.8913 40.218C69.914 40.218 70.5068 40.6757 70.7759 41.6459L75.4873 58.176L70.7491 58.176L69.5378 53.842L64.4222 53.842Z" fill="rgb(39.4625,107.864,186.038)" fill-rule="evenodd" />
		</g>
	</g>
</svg>
