<svg viewBox="0 0 230 100" xmlns="http://www.w3.org/2000/svg" xmlns:xlink="http://www.w3.org/1999/xlink" width="230.000000" height="100.000000" fill="none" customFrame="#000000">
	<g id="Brand 5">
		<path id="Rectangle 361" d="M0 92L0 8C0 3.58172 3.58172 0 8 0L222 0C226.418 0 230 3.58172 230 8L230 92C230 96.4183 226.418 100 222 100L8 100C3.58172 100 0 96.4183 0 92Z" fill="rgb(24.4375,24.4375,24.4375)" fill-rule="evenodd" />
		<g id="linkedin">
			<path id="Path 2348" d="M132.637 41.4327C132.637 40.6418 133.294 40 134.105 40L151.036 40C151.847 40 152.505 40.6418 152.505 41.4327L152.505 58.5675C152.505 59.3586 151.847 60 151.036 60L134.105 60C133.294 60 132.637 59.3586 132.637 58.5678L132.637 41.4324L132.637 41.4327Z" fill="rgb(0,119,178.5)" fill-rule="evenodd" />
			<path id="Path 2349" d="M89.6907 44.9283C89.6907 45.7955 89.0391 46.489 87.9926 46.489L87.9729 46.489C86.9656 46.489 86.3141 45.7955 86.3141 44.9283C86.3141 44.0425 86.9856 43.3684 88.0125 43.3684C89.0391 43.3684 89.6713 44.0423 89.6907 44.9283ZM85.294 56.7529L77 56.7529L77 43.6412L80.0021 43.6412L80.0021 54.0297L85.294 54.0297L85.294 56.7529ZM101.283 43.6412L104.285 43.6412L104.285 51.1499C104.502 50.7449 106.971 47.3328 106.971 47.3328L110.584 47.3328L107.129 51.1467L111.078 56.7529L107.385 56.7529L105.035 52.8803L104.285 53.8248L104.285 56.7529L101.283 56.7529L101.283 43.6412ZM90.8868 56.7529L93.8886 56.7529L93.8886 51.7094C93.8886 51.4394 93.908 51.1695 93.9875 50.9773C94.2041 50.438 94.698 49.8793 95.5274 49.8793C96.6139 49.8793 97.0485 50.7076 97.0485 51.921L97.0485 56.7526L100.05 56.7526L100.05 51.5745C100.05 48.8004 98.5688 47.5096 96.5937 47.5096C95.0017 47.5096 94.2876 48.3846 93.8886 49.0002L93.8886 47.7218L90.8868 47.7218C90.9264 48.5693 90.8868 56.7529 90.8868 56.7529ZM93.8886 49.0002L93.8886 49.0315L93.8684 49.0315C93.875 49.0211 93.8818 49.0107 93.8886 49.0002ZM89.4932 56.7529L89.4932 47.7218L86.4914 47.7218L86.4914 56.7529L89.4932 56.7529Z" fill="rgb(255,255,255)" fill-rule="evenodd" />
			<path id="Path 2350" d="M126.613 48.1801L126.613 43.6413L126.613 43.641L129.614 43.641L129.614 53.9403C129.614 55.0191 129.654 56.1171 129.694 56.7529L127.028 56.7529L126.909 55.3848L126.85 55.3848C126.257 56.4251 125.073 56.9649 123.828 56.9649C121.538 56.9649 119.701 55.0577 119.701 52.1293C119.682 48.9702 121.716 47.121 124.026 47.121C125.23 47.121 126.139 47.5448 126.573 48.1801L126.613 48.1801ZM119.204 51.8059C119.204 52.309 119.144 52.7539 119.105 52.9857L119.105 52.9852L112.884 52.9663C112.983 54.1929 114.207 54.7686 115.609 54.7686C116.636 54.7686 117.465 54.6341 118.275 54.3655L118.67 56.3479C117.683 56.7527 116.478 56.9447 115.175 56.9447C111.897 56.9447 110.021 55.0957 110.021 52.1348C110.021 49.7408 111.561 47.1013 114.899 47.1013C118.019 47.1013 119.204 49.4714 119.204 51.8059ZM112.865 50.955C112.944 50.1844 113.457 49.0473 114.741 49.0473C116.103 49.0473 116.42 50.2612 116.42 50.955L112.865 50.955ZM126.613 52.5726C126.613 52.8035 126.593 53.0351 126.553 53.2271C126.376 54.056 125.665 54.6333 124.796 54.6333C123.552 54.6333 122.742 53.6318 122.742 52.0522C122.742 50.5692 123.434 49.3747 124.816 49.3747C125.744 49.3747 126.396 50.0102 126.574 50.7998C126.613 50.9737 126.613 51.1665 126.613 51.3396L126.613 52.5726Z" fill="rgb(255,255,255)" fill-rule="evenodd" />
			<path id="Path 2351" d="M137.157 46.478C138.204 46.478 138.856 45.7845 138.856 44.9179C138.836 44.0315 138.204 43.3574 137.177 43.3574C136.15 43.3574 135.479 44.0315 135.479 44.9179C135.479 45.7845 136.13 46.478 137.138 46.478L137.157 46.478ZM143.321 56.7419L140.319 56.7419C140.32 56.6888 140.358 48.5556 140.32 47.7111L143.321 47.7111L143.321 48.9896C143.314 49 143.308 49.0103 143.301 49.0205L143.321 49.0205L143.321 48.9896C143.72 48.3743 144.434 47.4992 146.026 47.4992C148.001 47.4992 149.482 48.79 149.482 51.5638L149.482 56.7419L146.48 56.7419L146.48 51.9111C146.48 50.6969 146.046 49.8688 144.96 49.8688C144.131 49.8688 143.637 50.4272 143.42 50.9668C143.34 51.1593 143.321 51.4295 143.321 51.6991L143.321 56.7419ZM138.658 47.7108L138.658 56.7419L135.656 56.7419L135.656 47.7108L138.658 47.7108Z" fill="rgb(24.4375,24.4375,24.4375)" fill-rule="evenodd" />
		</g>
	</g>
</svg>
