<svg viewBox="0 0 230 100" xmlns="http://www.w3.org/2000/svg" xmlns:xlink="http://www.w3.org/1999/xlink" width="230.000000" height="100.000000" fill="none" customFrame="#000000">
	<g id="Brand 4">
		<path id="Rectangle 360" d="M0 92L0 8C0 3.58172 3.58172 0 8 0L222 0C226.418 0 230 3.58172 230 8L230 92C230 96.4183 226.418 100 222 100L8 100C3.58172 100 0 96.4183 0 92Z" fill="rgb(24.4375,24.4375,24.4375)" fill-rule="evenodd" />
		<g id="new-york-times">
			<path id="Path 2345" d="M120.157 46.6299C120.763 47.1996 121.381 47.7608 121.987 48.3322C121.983 49.4702 121.982 50.6079 121.982 51.7457C121.982 52.0705 121.983 52.3954 121.983 52.7203C121.983 53.0462 121.983 53.3721 121.983 53.698C121.361 53.1529 120.771 52.5748 120.157 52.0212L120.157 46.6299ZM119.917 46.4113C120.468 46.0547 121.027 45.7142 121.594 45.384C122.436 46.0853 123.273 46.7955 124.114 47.5002C124.329 47.327 124.545 47.1559 124.759 46.9801C124.805 46.9784 124.894 46.9746 124.939 46.9738C124.715 47.2081 124.483 47.4365 124.254 47.6657C124.254 47.8252 124.253 47.9846 124.253 48.1441C124.253 48.5373 124.254 48.9305 124.255 49.3237C124.255 49.7167 124.256 50.1097 124.256 50.5028C124.256 51.2374 124.254 51.9721 124.245 52.7068C122.975 53.3121 121.81 54.1064 120.578 54.7805C120.541 54.7937 120.502 54.8192 120.463 54.8451C120.371 54.9063 120.274 54.9704 120.185 54.8846C119.418 54.247 118.658 53.6017 117.886 52.97C117.718 53.1398 117.548 53.3096 117.385 53.4837C117.339 53.487 117.245 53.4938 117.198 53.4964C117.422 53.2621 117.654 53.0337 117.884 52.8045C117.884 52.6743 117.884 52.544 117.884 52.4138C117.884 51.9622 117.884 51.5107 117.885 51.0591C117.886 50.6075 117.886 50.1559 117.886 49.7043C117.886 48.9342 117.885 48.1641 117.878 47.394C118.565 47.085 119.271 46.8052 119.917 46.4113ZM86.3852 46.683C86.9795 47.6509 87.5242 48.651 88.0726 49.6461C87.5063 50.0612 86.9591 50.5019 86.3979 50.9238C86.3882 50.4054 86.3857 49.8867 86.3857 49.3679C86.3857 49.0756 86.3865 48.7833 86.3873 48.491C86.3881 48.1986 86.3889 47.9063 86.3889 47.614C86.3889 47.3036 86.388 46.9933 86.3852 46.683ZM86.538 46.3773C87.067 46.0564 87.5874 45.7202 88.1045 45.3797C88.6708 46.4588 89.2935 47.5129 89.8259 48.6081C88.6704 49.4605 87.5531 50.3652 86.4001 51.221C86.4006 51.23 86.4007 51.2391 86.4007 51.2483C86.4007 51.2979 86.3952 51.3504 86.3896 51.4034C86.3839 51.4575 86.3781 51.5123 86.3781 51.5654C86.3781 51.6661 86.3989 51.7604 86.4808 51.8323C87.0216 52.3732 87.5612 52.9148 88.1046 53.4539C88.7974 52.8953 89.4795 52.3222 90.1825 51.7771C90.2529 51.7079 90.3367 51.8033 90.3367 51.8853C90.3367 51.927 90.315 51.9653 90.2589 51.9767C88.9615 52.9675 87.6762 53.9752 86.3661 54.9483C85.6656 54.2894 84.9601 53.6348 84.2648 52.97C83.9888 53.1406 83.7231 53.3261 83.4539 53.507C83.4285 53.462 83.3754 53.3716 83.3499 53.3266C83.5928 53.1313 83.8688 52.984 84.1183 52.7981C84.116 52.2115 84.1153 51.6249 84.1153 51.0383C84.1153 50.6118 84.1157 50.1854 84.116 49.7589C84.1164 49.3325 84.1168 48.9061 84.1168 48.4796C84.1168 48.2005 84.1166 47.9214 84.1162 47.6424C84.9262 47.2255 85.7646 46.8613 86.538 46.3773ZM66.3992 46.649C67.0054 47.6449 67.6146 48.6374 68.214 49.6376C67.6044 50.0663 66.9999 50.5002 66.3972 50.9366C66.3941 50.2026 66.3918 49.4684 66.3918 48.7342C66.3918 48.0391 66.3938 47.3439 66.3992 46.649ZM66.0894 46.7169C66.8077 46.2695 67.5165 45.8064 68.2501 45.3818C68.8206 46.4482 69.3907 47.5137 69.9799 48.57C68.7998 49.4708 67.6013 50.3483 66.4034 51.2253C66.4043 51.2386 66.4047 51.2522 66.4047 51.266C66.4047 51.3132 66.3999 51.3633 66.3951 51.4139C66.3902 51.4658 66.3852 51.5184 66.3852 51.5693C66.3852 51.6789 66.4084 51.7807 66.5052 51.8515C67.0885 52.3804 67.6544 52.9276 68.2394 53.454C68.9475 52.8886 69.6428 52.3023 70.3577 51.7454L70.5169 51.8854C69.2324 52.8797 67.9354 53.8598 66.6518 54.8549C66.6136 54.8745 66.5384 54.914 66.5011 54.9334C65.743 54.2984 65.0259 53.6144 64.266 52.9828C64.0401 53.1339 63.8369 53.3148 63.6314 53.4922C63.5856 53.4642 63.4947 53.4089 63.4489 53.3818C63.6866 53.1491 63.9919 53.0032 64.2534 52.8002C64.2502 51.9993 64.2496 51.1984 64.2496 50.3976C64.2496 50.1498 64.2497 49.9021 64.2497 49.6544C64.2498 49.4067 64.2499 49.159 64.2499 48.9112C64.2499 48.4883 64.2497 48.0653 64.2491 47.6424C64.8621 47.3342 65.4806 47.0345 66.0894 46.7169ZM182.898 49.7946C183.176 50.029 183.451 50.2675 183.73 50.5036C183.8 50.5459 183.813 50.6137 183.813 50.6863C183.813 50.706 183.812 50.726 183.811 50.7459C183.81 50.7657 183.809 50.7854 183.809 50.8047C183.809 50.8237 183.81 50.8424 183.813 50.8602C183.811 51.032 183.811 51.2039 183.811 51.3758C183.811 51.5661 183.811 51.7564 183.812 51.9467C183.812 52.1371 183.813 52.3275 183.813 52.5179C183.813 52.886 183.811 53.2541 183.802 53.6216C183.594 53.1512 183.282 52.7136 182.843 52.435C182.205 52.0182 181.328 51.994 180.68 52.3989C180.383 52.5636 180.145 52.8094 179.92 53.059C180.242 52.4308 180.762 51.9349 181.251 51.4373C181.809 50.8992 182.368 50.3618 182.898 49.7946ZM181.987 46.5938C182.345 47.1075 182.818 47.6071 183.467 47.7124C184.113 47.8644 184.739 47.5142 185.163 47.0481C184.583 48.1204 183.683 48.9813 182.754 49.7522C182.502 49.4856 182.232 49.2373 181.983 48.969C181.987 48.6568 181.988 48.3445 181.988 48.0321C181.988 47.8489 181.988 47.6656 181.987 47.4824C181.987 47.2992 181.987 47.116 181.987 46.9329C181.987 46.8198 181.987 46.7068 181.987 46.5938ZM185.59 45.2534C185.59 45.1639 185.569 45.0739 185.536 44.9892C185.725 45.1608 185.788 45.4037 185.788 45.6517C185.788 45.8086 185.763 45.9676 185.729 46.1119C185.497 46.9949 184.936 47.7412 184.379 48.4467C184.906 48.8271 185.413 49.2342 185.946 49.6078C185.955 50.0069 185.958 50.4065 185.958 50.8063C185.958 51.0471 185.957 51.2879 185.956 51.5287C185.955 51.7695 185.954 52.0103 185.954 52.2511C185.954 52.4412 185.955 52.6313 185.956 52.8213C184.751 53.4471 183.59 54.1564 182.488 54.9502C182.214 54.6064 181.86 54.2999 181.431 54.1776C181.018 54.0571 180.52 54.3377 180.419 54.7571C180.418 54.7719 180.417 54.7866 180.417 54.801C180.417 55.2178 180.846 55.4678 181.198 55.5934C180.906 55.7072 180.6 55.5756 180.349 55.4278C179.799 55.0992 179.524 54.4391 179.524 53.8156C179.524 53.7933 179.524 53.7711 179.525 53.749C179.545 53.1834 179.876 52.6969 180.226 52.2758C180.566 51.8759 180.922 51.4884 181.283 51.1064C180.812 50.6955 180.319 50.3134 179.839 49.9135C179.84 49.6149 179.84 49.3165 179.84 49.0181C179.84 48.8818 179.84 48.7455 179.84 48.6091C179.84 48.4728 179.84 48.3365 179.84 48.2001C179.84 47.928 179.84 47.6558 179.841 47.3834C180.498 47.1092 181.153 46.8146 181.745 46.4155C182.259 46.0708 182.776 45.7287 183.29 45.384C183.597 45.693 183.952 46.0203 184.407 46.0611C184.842 46.0687 185.353 45.904 185.54 45.4752C185.575 45.4041 185.59 45.329 185.59 45.2534ZM91.0451 43.9236C91.3889 43.6876 91.8236 43.7021 92.221 43.6511C91.9213 43.888 91.5885 44.1631 91.5477 44.5714C91.5397 44.6148 91.536 44.6576 91.536 44.6997C91.536 45.0129 91.7436 45.2911 91.9808 45.4841C92.4707 45.8764 93.0998 46.0954 93.4988 46.5981C93.6841 46.8326 93.799 47.1273 93.799 47.4279C93.799 47.4385 93.7988 47.4492 93.7985 47.4598C93.7979 47.9023 93.7977 48.3446 93.7977 48.7869C93.7977 49.0764 93.7977 49.3659 93.7978 49.6553C93.7979 49.9447 93.798 50.2341 93.798 50.5235C93.798 51.1488 93.7976 51.7741 93.796 52.3994C94.234 52.7535 94.6739 53.1033 95.111 53.4573C95.2384 53.375 95.3657 53.2927 95.494 53.2103C95.493 52.8821 95.4926 52.5538 95.4926 52.2256C95.4926 51.8412 95.4931 51.4568 95.4936 51.0724C95.4941 50.688 95.4946 50.3036 95.4946 49.9192C95.4946 49.2187 95.4929 48.5183 95.4863 47.8181C95.2614 47.5524 94.9498 47.3622 94.6925 47.1253C95.3241 46.5437 95.9431 45.9469 96.5875 45.3797C97.1478 45.9299 97.7371 46.4503 98.3119 46.9852C98.0937 47.2161 97.8692 47.4409 97.6386 47.6594C97.637 48.26 97.6366 48.8606 97.6366 49.4613C97.6366 49.7379 97.6367 50.0144 97.6367 50.291C97.6368 50.5676 97.6369 50.8442 97.6369 51.1208C97.6369 51.547 97.6367 51.9732 97.636 52.3995C98.21 52.8443 98.784 53.2901 99.3638 53.7282C99.4454 53.6805 99.5278 53.6339 99.6118 53.5872C99.6087 52.9007 99.608 52.2143 99.608 51.5278C99.608 51.1757 99.6082 50.8236 99.6084 50.4716C99.6086 50.1195 99.6088 49.7674 99.6088 49.4152C99.6088 48.8764 99.6083 48.3375 99.6066 47.7986C99.3409 47.5719 99.0658 47.3554 98.8034 47.1245C99.4232 46.5387 100.051 45.963 100.674 45.3814C101.294 45.8671 101.916 46.3527 102.533 46.8426C102.747 46.6066 102.966 46.3723 103.211 46.1659C103.242 46.2109 103.307 46.3018 103.338 46.3468C102.81 46.8171 102.285 47.2934 101.773 47.7816C101.757 48.3538 101.752 48.9267 101.752 49.4998C101.752 49.8186 101.754 50.1375 101.755 50.4563C101.756 50.7752 101.758 51.094 101.758 51.4127C101.758 51.7429 101.756 52.073 101.752 52.4029C100.408 53.2858 99.0046 54.0917 97.641 54.9508C96.9218 54.4354 96.2232 53.8921 95.5133 53.3648C94.8765 53.8768 94.2389 54.3896 93.5979 54.8965C93.5306 54.9713 93.4619 54.911 93.4002 54.8569C93.3779 54.8373 93.3565 54.8186 93.3364 54.8073C92.7369 54.3259 92.141 53.8402 91.5339 53.3699C91.2792 53.5923 91.0119 53.8003 90.7563 54.0227C90.7156 53.9837 90.6358 53.9064 90.595 53.8682C90.9066 53.6526 91.2114 53.4259 91.523 53.2102C91.5239 52.4644 91.5243 51.7187 91.5243 50.973C91.5243 50.2274 91.5239 49.4817 91.523 48.7359C91.5221 48.3368 91.382 47.9327 91.1095 47.6372C90.8098 47.3121 90.4065 47.0837 90.1679 46.7025C89.9959 46.4137 89.9259 46.08 89.9259 45.7455C89.9259 45.5666 89.9459 45.3874 89.9812 45.2149C90.129 44.6555 90.5731 44.2293 91.0451 43.9236ZM154.543 43.4074C155.094 42.9252 155.611 42.4073 156.174 41.9386C156.649 42.4404 157.15 42.9175 157.633 43.4117C157.053 43.9542 156.47 44.4925 155.882 45.0265C155.438 44.484 154.982 43.9542 154.543 43.4074ZM112.745 48.7227C113.081 48.7312 113.34 48.9821 113.514 49.247C113.513 49.6297 113.513 50.0124 113.513 50.3951C113.513 50.8084 113.513 51.2217 113.513 51.635C113.513 52.0483 113.514 52.4616 113.514 52.8748C113.514 53.0523 113.514 53.2298 113.514 53.4072C113.515 53.4257 113.515 53.444 113.515 53.4622C113.515 53.8639 113.234 54.207 112.928 54.4409C112.619 54.6863 112.199 54.6948 111.824 54.6744C111.816 54.0037 111.814 53.3327 111.814 52.6616C111.814 52.2494 111.815 51.8372 111.816 51.425C111.817 51.0128 111.817 50.6007 111.817 50.1887C111.817 49.8719 111.817 49.5552 111.816 49.2385C112.058 48.9745 112.366 48.7176 112.745 48.7227ZM111.816 47.4301C112.337 47.695 113.008 47.7752 113.514 47.4322C113.513 47.6806 113.512 47.9294 113.512 48.1783C113.512 48.4272 113.513 48.676 113.514 48.9244C113.308 48.724 113.044 48.5648 112.749 48.5657C112.403 48.558 112.085 48.7215 111.816 48.9244C111.816 48.7942 111.816 48.664 111.816 48.5338C111.816 48.3875 111.816 48.2411 111.816 48.0946C111.816 47.9481 111.815 47.8016 111.815 47.6551C111.815 47.5801 111.815 47.5051 111.816 47.4301ZM112.45 42.9048C112.807 43.2105 113.158 43.5221 113.514 43.8303C113.514 43.957 113.514 44.0838 113.514 44.2105C113.514 44.5397 113.513 44.8689 113.513 45.1981C113.513 45.5273 113.513 45.8565 113.513 46.1857C113.513 46.4958 113.513 46.8059 113.514 47.116C113.345 47.2824 113.16 47.4581 112.913 47.4895C112.51 47.5744 112.119 47.3754 111.816 47.1266C111.816 46.5867 111.817 46.0469 111.817 45.507C111.817 44.7724 111.816 44.0377 111.816 43.303L111.816 43.2911C112.028 43.1638 112.24 43.0364 112.45 42.9048ZM111.818 43.115C112.608 42.4595 113.388 41.7935 114.187 41.1473C114.806 41.6763 115.418 42.2103 116.044 42.7309C116.36 42.5085 116.603 42.1455 116.99 42.0496C116.714 42.3688 116.363 42.6163 116.046 42.8923C116.041 44.2074 116.04 45.5225 116.04 46.8376C116.04 47.5304 116.04 48.2233 116.041 48.9162C116.041 49.6091 116.041 50.3019 116.041 50.9948C116.041 51.7714 116.041 52.548 116.039 53.3246C116.026 53.8823 115.804 54.4746 115.312 54.7786C114.834 55.1318 114.215 55.2437 113.633 55.1775C112.607 55.0722 111.645 54.6542 110.621 54.5471C109.737 54.3611 108.762 54.213 107.914 54.6129C107.57 54.7927 107.23 55.1364 107.23 55.5404C107.23 55.596 107.236 55.6527 107.25 55.7103C107.351 56.2044 107.822 56.5614 108.326 56.5275C109.813 56.4876 111.248 56.0202 112.72 55.8504C113.504 55.7655 114.364 55.6724 115.076 56.0901C115.617 56.3678 116.137 56.8479 116.175 57.4931C116.177 57.5326 116.178 57.5722 116.178 57.6119C116.178 58.2282 115.943 58.8654 115.466 59.2697C115.016 59.6612 114.442 59.8777 113.866 60C114.169 59.7758 114.49 59.5169 114.588 59.134C114.608 59.0657 114.618 58.9943 114.618 58.9229C114.618 58.5511 114.35 58.1757 113.94 58.2064C112.298 58.2607 110.742 58.9111 109.103 59.0087C108.526 59.0282 107.925 59.0205 107.392 58.7709C106.687 58.4075 106.161 57.6804 106.089 56.884C106.085 56.789 106.082 56.6927 106.082 56.5961C106.082 56.2306 106.124 55.8607 106.31 55.5404C106.631 54.9724 107.218 54.6068 107.821 54.3963C107.821 54.1743 107.822 53.9522 107.823 53.7301C107.825 52.998 107.827 52.266 107.827 51.534C107.827 50.7208 107.824 49.9075 107.817 49.0942C107.413 48.983 106.871 49.039 106.632 49.4211C106.596 49.499 106.58 49.5753 106.58 49.6491C106.58 49.9355 106.822 50.1835 107.061 50.338C106.525 50.2498 105.947 49.9636 105.775 49.4083C105.679 49.2033 105.634 48.9829 105.634 48.7625C105.634 48.3794 105.77 47.9962 106.013 47.6933C106.392 47.0837 107.168 46.9776 107.825 46.9674C107.825 46.8078 107.825 46.6482 107.825 46.4886C107.825 46.1971 107.825 45.9056 107.826 45.6142C107.826 45.3228 107.826 45.0315 107.826 44.7402C107.826 44.4864 107.826 44.2326 107.825 43.9788C107.818 43.6469 107.799 43.2924 107.607 43.0088C107.383 42.6573 106.884 42.5287 106.509 42.6883C106.168 42.8946 106.047 43.3128 105.994 43.6838C105.971 43.5759 105.96 43.4666 105.96 43.3574C105.96 42.8604 106.183 42.3657 106.543 42.024C107.02 41.5612 107.647 41.2021 108.331 41.2216C108.907 41.2615 109.504 41.4717 109.886 41.9242C110.193 42.2799 110.344 42.7486 110.353 43.2147C110.354 43.6772 110.354 44.1396 110.354 44.6021C110.354 45.5382 110.353 46.4742 110.353 47.4102C110.353 48.3461 110.352 49.282 110.352 50.2179C110.352 51.5682 110.353 52.9185 110.355 54.269C110.782 54.3658 111.215 54.4519 111.646 54.5343C111.647 53.4018 111.647 52.2693 111.647 51.1368C111.647 50.181 111.647 49.2253 111.647 48.2695C111.646 47.3138 111.646 46.358 111.646 45.4022C111.646 44.0774 111.647 42.7525 111.648 41.4275C111.646 41.4136 111.645 41.4006 111.645 41.3884C111.645 41.2989 111.7 41.2567 111.807 41.262C111.816 41.5053 111.818 41.7484 111.818 41.9914C111.818 42.115 111.817 42.2385 111.817 42.3621C111.816 42.4856 111.815 42.6092 111.815 42.7328C111.815 42.8601 111.816 42.9875 111.818 43.115ZM55.7104 42.7231C56.5875 42.0694 57.4475 41.3919 58.3254 40.7407C58.3268 41.46 58.3272 42.1794 58.3272 42.8989C58.3272 43.3101 58.3271 43.7212 58.327 44.1324C58.3269 44.5437 58.3267 44.9549 58.3267 45.3661C58.3267 45.9831 58.327 46.6 58.328 47.217C59.0709 46.604 59.8196 45.9986 60.5549 45.3772C61.145 45.9893 61.696 46.6397 62.3039 47.2323C62.5604 47.048 62.8235 46.8731 63.0926 46.7084C63.0443 47.0506 62.635 47.1677 62.4227 47.4063C62.4236 47.8255 62.4239 48.2445 62.4239 48.6635C62.4239 48.952 62.4238 49.2405 62.4237 49.529C62.4235 49.8176 62.4234 50.1061 62.4234 50.3947C62.4234 50.5784 62.4235 50.7621 62.4236 50.9459C62.4246 51.0007 62.4251 51.0555 62.4251 51.1102C62.4251 51.5737 62.3895 52.0357 62.3538 52.4978C62.3258 52.86 62.2978 53.2223 62.287 53.5855C62.247 54.5415 61.876 55.5188 61.1306 56.1462C60.5243 56.6879 59.6958 56.8831 58.9053 56.9485C58.8917 56.9672 58.8629 57.0054 58.8484 57.0248L58.8697 56.9553C58.5971 56.9553 58.3254 56.9451 58.0537 56.9247C58.3951 56.7481 58.7814 56.6352 59.0505 56.3431C59.3595 55.9983 59.7195 55.6699 59.8715 55.219C60.1203 54.5313 60.1279 53.7901 60.1525 53.0685C60.1511 52.7192 60.1506 52.3699 60.1506 52.0206C60.1506 51.6959 60.151 51.3712 60.1514 51.0465C60.1518 50.7218 60.1522 50.3971 60.1522 50.0725C60.1522 49.4536 60.1507 48.8348 60.1449 48.2163C59.7849 47.7468 59.3536 47.3325 58.9715 46.8791C58.7627 47.1024 58.5123 47.29 58.3331 47.5379C58.3275 48.1853 58.326 48.8329 58.326 49.4804C58.326 49.8604 58.3265 50.2404 58.327 50.6204C58.3275 51.0003 58.328 51.3803 58.328 51.7602C58.328 52.0222 58.3278 52.2842 58.3271 52.5462C58.5437 52.762 58.7593 52.9793 58.9775 53.1933C59.1525 53.0175 59.3273 52.8409 59.5022 52.6643C59.5413 52.7025 59.6185 52.7789 59.6575 52.8171C58.8085 53.4811 57.9681 54.1553 57.119 54.8183C56.5816 54.3411 56.0569 53.8504 55.528 53.3639C55.3505 53.4964 55.1731 53.6305 54.9948 53.762C54.9567 53.7221 54.8819 53.6423 54.8438 53.6024C55.2513 53.3401 55.6512 53.0659 56.0545 52.7984C56.054 51.3143 56.0538 49.8304 56.0538 48.3465C56.0538 46.8626 56.054 45.3788 56.0545 43.8947C56.0533 43.8646 56.0525 43.8343 56.0517 43.8038C56.0465 43.6039 56.0411 43.3967 55.9373 43.2214C55.8582 43.0669 55.68 43.0176 55.5467 42.9242C55.5439 42.915 55.5426 42.9063 55.5426 42.8979C55.5426 42.8457 55.5937 42.8108 55.6424 42.7775C55.6685 42.7597 55.6938 42.7424 55.7104 42.7231ZM131.785 42.6077C132.804 41.9437 133.821 41.2739 134.844 40.615C134.846 41.5463 134.846 42.4777 134.846 43.409C134.846 44.1735 134.846 44.938 134.845 45.7024C134.845 46.4669 134.845 47.2314 134.845 47.9959C134.845 49.4533 134.846 50.9107 134.852 52.368C135.073 52.6686 135.374 52.9156 135.642 53.1798C135.81 52.9998 135.985 52.8274 136.158 52.6534C136.199 52.694 136.28 52.7756 136.322 52.8155C135.506 53.5227 134.715 54.2571 133.894 54.9568C133.377 54.4261 132.842 53.9142 132.33 53.3809C132.1 53.5855 131.889 53.8098 131.673 54.028C131.628 53.994 131.54 53.9251 131.496 53.8913C131.887 53.5168 132.307 53.1738 132.702 52.8028C132.702 52.0418 132.701 51.2808 132.701 50.5198C132.701 49.9749 132.701 49.4299 132.702 48.885C132.702 48.3401 132.702 47.7952 132.702 47.2503C132.702 46.1323 132.701 45.0144 132.699 43.8966C132.69 43.3412 132.407 42.6764 131.785 42.6077ZM84.3913 40.5997C84.5598 40.8949 84.6371 41.225 84.6371 41.5576C84.6371 42.2238 84.327 42.9001 83.819 43.3259C83.3512 43.6307 82.8129 43.7988 82.2857 43.9695C82.2902 45.355 82.2916 46.7406 82.2916 48.1262C82.2916 49.1053 82.2909 50.0844 82.2903 51.0634C82.2896 52.0424 82.2889 53.0214 82.2889 54.0004C82.2889 54.2824 82.289 54.5643 82.2891 54.8463C82.293 54.8635 82.2948 54.8804 82.2948 54.8966C82.2948 55.0368 82.1582 55.1348 82.0183 55.0756C81.7101 55.0611 81.6286 54.736 81.4978 54.5169C79.6011 51.0291 77.7248 47.5294 75.8128 44.0493C75.7991 45.0059 75.7955 45.9628 75.7955 46.9199C75.7955 47.4437 75.7966 47.9676 75.7977 48.4915C75.7987 49.0154 75.7998 49.5392 75.7998 50.0631C75.7998 50.6194 75.7986 51.1758 75.7949 51.732C76.6983 51.9028 77.5779 52.3383 78.1688 53.0566C78.443 52.8443 78.6205 52.4708 78.972 52.385C78.8828 52.5472 78.7529 52.6804 78.629 52.8163C77.9455 53.5728 77.2637 54.3327 76.5811 55.0908C76.2645 54.6918 75.8426 54.3131 75.3144 54.2588C74.9671 54.2452 74.5656 54.263 74.3125 54.5373C74.1058 54.7218 73.9474 54.9961 73.9474 55.2726C73.9474 55.3854 73.9738 55.4986 74.0341 55.6062C74.2777 56.1385 74.8907 56.2829 75.4069 56.4102C74.7617 56.5376 74.0392 56.4629 73.5188 56.0307C73.1045 55.6767 72.7282 55.2274 72.6205 54.6791C72.5919 54.5299 72.5777 54.3775 72.5777 54.2249C72.5777 53.6038 72.8126 52.9779 73.2658 52.5479C73.8831 51.9375 74.7881 51.7099 75.6354 51.7583C75.646 51.2448 75.6495 50.7313 75.6495 50.2178C75.6495 49.6953 75.6458 49.1728 75.6422 48.6503C75.6416 48.5707 75.641 48.4911 75.6405 48.4115C75.2287 48.3461 74.6675 48.4047 74.4756 48.8352C74.4576 48.8918 74.4493 48.9471 74.4493 49.0007C74.4493 49.2768 74.6681 49.5089 74.8849 49.6689C74.5639 49.6129 74.2073 49.5517 73.9756 49.303C73.7022 48.9659 73.4899 48.5677 73.411 48.1381C73.3975 48.044 73.3906 47.9477 73.3906 47.8508C73.3906 47.3788 73.5555 46.8948 73.9374 46.5997C74.4188 46.227 75.0598 46.176 75.6473 46.1896L75.6473 43.831C75.4342 43.5109 75.2296 43.1442 74.8637 42.9786C74.6243 42.8793 74.3119 42.8436 74.1056 43.0304C73.8203 43.2724 73.7514 43.657 73.6386 43.994C73.6123 43.7966 73.5971 43.5927 73.5971 43.388C73.5971 42.74 73.7498 42.0834 74.1879 41.593C74.8841 40.6913 76.3572 40.6582 77.1187 41.492C77.4482 41.8307 77.674 42.2484 77.8982 42.6602C79.3076 45.1699 80.689 47.6958 82.1128 50.197C82.1172 49.1036 82.1205 48.0097 82.1205 46.9159C82.1205 45.9347 82.1179 44.9536 82.1111 43.9728C81.8665 43.8777 81.594 43.8803 81.3452 43.7937C80.8816 43.6714 80.4953 43.3725 80.1523 43.0491C79.9384 43.3004 79.7226 43.5508 79.5232 43.8132C79.4765 43.7877 79.3839 43.7376 79.3373 43.7122C80.0675 42.7918 80.8502 41.9131 81.6102 41.0165C82.0083 41.4359 82.528 41.7789 83.1206 41.8171C83.7393 41.7459 84.348 41.2509 84.3913 40.5997ZM147.534 45.6939C147.538 46.343 147.539 46.9921 147.539 47.6412C147.539 48.0454 147.539 48.4496 147.538 48.8538C147.538 49.258 147.537 49.6623 147.537 50.0665C147.537 50.4053 147.538 50.7442 147.539 51.083C147.232 51.2112 146.929 51.3466 146.624 51.4757C146.181 50.8525 145.835 50.1516 145.658 49.4062C145.588 49.0586 145.55 48.7006 145.55 48.3431C145.55 47.6963 145.675 47.0508 145.968 46.4707C146.494 46.2194 147.013 45.9562 147.534 45.6939ZM151.799 40.0012C152.041 40.0087 152.292 40.1068 152.533 40.1263C153.069 40.207 153.588 40.488 153.919 40.9244C154.127 41.2751 154.233 41.6872 154.233 42.0991C154.233 42.5159 154.125 42.9324 153.906 43.2847C153.488 43.9664 152.702 44.315 151.926 44.3651C151.932 44.679 151.934 44.9931 151.934 45.3072C151.934 45.4795 151.934 45.6519 151.933 45.8242C151.933 45.9966 151.932 46.1689 151.932 46.3412C151.932 46.5131 151.933 46.6851 151.934 46.8569C152.329 47.2169 152.751 47.5497 153.123 47.9352C152.719 48.223 152.343 48.5456 151.943 48.8352C151.934 49.3014 151.932 49.7677 151.932 50.234C151.932 50.4708 151.933 50.7077 151.933 50.9446C151.934 51.1814 151.934 51.4183 151.934 51.6551C151.934 51.8995 151.934 52.1439 151.932 52.3883C152.64 51.8662 153.221 51.1831 153.67 50.4292C153.809 50.2017 153.904 49.9482 154.067 49.7351C154.05 50.5824 153.909 51.431 153.558 52.2079C153.231 53.1232 152.506 53.8287 151.726 54.3729C150.544 55.0912 149.094 55.2856 147.742 55.0606C147.178 54.8901 146.637 54.6434 146.133 54.3369C145.081 53.69 144.273 52.6762 143.813 51.5351C143.557 50.8402 143.436 50.0978 143.436 49.3563C143.436 49.0604 143.455 48.7648 143.493 48.4723C143.844 46.4516 145.433 44.8071 147.297 44.0531C147.539 43.9292 147.815 43.9381 148.082 43.9194C147.815 43.9805 147.618 44.1665 147.424 44.3439C146.774 44.7829 146.291 45.4392 145.989 46.1566C147.312 45.6073 148.619 45.0197 149.937 44.4585C149.936 44.768 149.935 45.0775 149.935 45.387C149.935 45.8021 149.936 46.2173 149.937 46.6324C149.938 47.0476 149.939 47.4628 149.939 47.878C149.939 48.6089 149.936 49.3398 149.926 50.0706C149.144 50.4391 148.378 50.839 147.602 51.221C147.326 51.3653 147.034 51.4799 146.779 51.6583C147.403 52.3273 148.225 52.8926 149.164 52.9487C150.015 53.0668 150.938 52.9372 151.639 52.4118C151.636 51.9112 151.635 51.4104 151.635 50.9097C151.635 50.7657 151.635 50.6218 151.635 50.4778C151.635 50.3339 151.635 50.19 151.635 50.046C151.635 49.6459 151.635 49.2458 151.633 48.8459C151.229 48.5445 150.837 48.2286 150.438 47.9204C150.834 47.5604 151.234 47.2068 151.635 46.8528C151.635 46.7173 151.634 46.5818 151.634 46.4464C151.634 46.275 151.635 46.1036 151.635 45.9323C151.635 45.761 151.636 45.5898 151.636 45.4185C151.636 45.0617 151.634 44.7049 151.629 44.3482C150.883 44.2106 150.172 43.9343 149.432 43.7772C148.339 43.5182 147.26 43.2079 146.155 43.0025C145.853 42.915 145.498 42.9125 145.238 43.1086C144.978 43.3192 144.843 43.6481 144.794 43.9725C144.783 44.0122 144.779 44.0505 144.779 44.0876C144.779 44.2919 144.927 44.4585 145.067 44.6154C145.111 44.6643 145.154 44.7122 145.191 44.7599C144.644 44.698 144.257 44.2246 144.066 43.7432C143.981 43.4773 143.935 43.1946 143.935 42.913C143.935 42.4305 144.069 41.951 144.37 41.5634C144.738 41.0064 145.371 40.7076 145.996 40.5318C146.571 40.3807 147.168 40.4953 147.738 40.6167C148.847 40.8765 149.905 41.307 150.992 41.6398C151.445 41.7629 151.95 41.858 152.395 41.6525C152.619 41.5567 152.809 41.3351 152.809 41.0849C152.809 41.0579 152.807 41.0306 152.802 41.003C152.714 40.7415 152.546 40.4885 152.291 40.3662C152.005 40.2228 151.682 40.1926 151.376 40.1222C151.51 40.0254 151.653 39.9968 151.799 40.0012ZM151.799 40.0012L151.799 40.0012L151.799 40.0012ZM48.0943 45.696C48.0939 45.9057 48.0937 46.1154 48.0937 46.3252C48.0937 46.7629 48.0944 47.2006 48.0951 47.6384C48.0958 48.0761 48.0965 48.5138 48.0965 48.9516C48.0965 49.6663 48.0947 50.3811 48.0879 51.0958C47.7874 51.2139 47.4918 51.3429 47.1964 51.4736C46.6514 50.6849 46.3126 49.7564 46.1564 48.814C46.1516 48.7236 46.1492 48.633 46.1492 48.5424C46.1492 47.8361 46.2931 47.1279 46.5384 46.4665C47.0615 46.2177 47.573 45.949 48.0943 45.696ZM51.934 40.1222C52.0598 40.0417 52.1903 40.0076 52.3246 40.0012L52.3246 40.0012C52.5 39.9928 52.6807 40.0302 52.8602 40.0674C52.9829 40.0928 53.1051 40.1181 53.2246 40.1285C53.7561 40.2245 54.2086 40.5696 54.5576 40.9669C54.7529 41.2554 54.8242 41.5897 54.8242 41.9307C54.8242 42.2519 54.7609 42.5791 54.6786 42.8794C54.4349 43.8277 53.3944 44.3049 52.4902 44.3524C52.4898 44.5241 52.4897 44.696 52.4897 44.8679C52.4897 45.1075 52.49 45.3474 52.4902 45.5873C52.4905 45.8272 52.4907 46.0672 52.4907 46.3071C52.4907 46.4862 52.4906 46.6653 52.4902 46.8443C52.8909 47.2009 53.29 47.5562 53.6916 47.9119C53.3002 48.2363 52.8944 48.544 52.4902 48.8522C52.4893 49.1191 52.4889 49.3859 52.4889 49.6527C52.4889 49.9377 52.4893 50.2226 52.4897 50.5076C52.49 50.7925 52.4904 51.0775 52.4904 51.3624C52.4904 51.7065 52.4899 52.0506 52.4882 52.3948C53.4178 51.7214 54.0987 50.7676 54.6107 49.7522C54.6128 49.8133 54.6138 49.8744 54.6138 49.9355C54.6138 50.532 54.5162 51.1286 54.322 51.6922C54.0911 52.3231 53.8563 52.9751 53.3902 53.4752C52.3229 54.6656 50.6589 55.2623 49.0772 55.1307C48.3131 55.1213 47.5956 54.7984 46.9291 54.4536C45.7421 53.8263 44.8469 52.7276 44.3629 51.4863C44.1343 50.8332 43.9998 50.1348 43.9998 49.4391C43.9998 48.9464 44.0672 48.455 44.2164 47.982C44.7547 46.1854 46.1848 44.7128 47.9202 44.0277C48.099 43.9443 48.2953 43.9381 48.4894 43.932C48.5405 43.9304 48.5915 43.9288 48.6419 43.9258C47.7147 44.3961 46.9375 45.1879 46.5554 46.1651C47.8774 45.6005 49.1899 45.0147 50.5161 44.4585C50.5145 44.7548 50.5139 45.051 50.5139 45.3472C50.5139 45.7526 50.515 46.158 50.5161 46.5634C50.5172 46.9688 50.5183 47.3741 50.5183 47.7794C50.5183 48.5418 50.5144 49.3042 50.4992 50.0664C49.438 50.5741 48.3805 51.0962 47.3429 51.6498C47.9618 52.3332 48.8007 52.8962 49.7457 52.9488C50.6354 53.0532 51.6148 52.9615 52.3458 52.3969C52.34 52.0674 52.3382 51.7379 52.3382 51.4084C52.3382 51.1843 52.339 50.9603 52.3398 50.7362C52.3406 50.5122 52.3414 50.2881 52.3414 50.064C52.3414 49.6566 52.3388 49.2491 52.3289 48.8416C51.8822 48.5385 51.4365 48.2354 51.0043 47.912C51.4483 47.563 51.8805 47.1992 52.333 46.8613C52.3394 46.4423 52.3426 46.0235 52.3426 45.6047C52.3426 45.186 52.3394 44.7672 52.333 44.3482C51.6317 44.2208 50.9538 43.9979 50.2678 43.8112C49.0426 43.5624 47.8455 43.1927 46.617 42.9643C46.2935 42.9142 45.9042 42.9515 45.6852 43.2232C45.5078 43.4166 45.4265 43.6693 45.4265 43.9254C45.4265 44.2282 45.5401 44.5358 45.7425 44.7557C45.1117 44.6691 44.6756 44.0578 44.556 43.4694C44.5373 43.3398 44.5279 43.2078 44.5279 43.0753C44.5279 42.4472 44.7398 41.8076 45.1864 41.3596C45.7722 40.7687 46.6021 40.3603 47.4511 40.4724C49.0363 40.6566 50.4953 41.3647 52.0381 41.7289C52.4931 41.847 53.0251 41.7311 53.3349 41.3617C53.4293 41.2737 53.4862 41.1476 53.4862 41.0233C53.4862 40.9318 53.4554 40.8412 53.3859 40.7674C53.0589 40.2954 52.452 40.2257 51.934 40.1222Z" fill="rgb(255,255,255)" fill-rule="evenodd" />
			<path id="Path 2346" d="M176.942 45.3818C176.402 45.7104 175.86 46.0385 175.327 46.3773C174.589 46.8901 173.743 47.2093 172.961 47.6423C172.965 48.6257 172.965 49.6094 172.964 50.5929L172.964 50.5949C172.963 51.3295 172.963 52.064 172.965 52.798C172.695 52.9763 172.428 53.1579 172.158 53.3329C172.193 53.3754 172.263 53.4624 172.298 53.5049C172.531 53.3325 172.741 53.1279 172.992 52.9784C173.693 53.6296 174.426 54.2456 175.136 54.8866C175.192 54.9754 175.268 54.9174 175.331 54.8691C175.346 54.8583 175.359 54.848 175.372 54.8399C176.652 53.8534 177.936 52.8727 179.218 51.8896C179.098 51.6805 178.966 51.7985 178.841 51.91C178.809 51.9388 178.777 51.9672 178.746 51.9893C178.145 52.4793 177.544 52.9687 176.94 53.456C176.323 52.8931 175.727 52.3094 175.098 51.76C175.088 51.5833 175.088 51.4062 175.096 51.2294C176.297 50.3591 177.485 49.4685 178.677 48.5848C178.103 47.5141 177.527 46.4456 176.942 45.3818ZM137.614 45.3899C136.717 46.7186 135.824 48.049 134.95 49.3913C136.119 51.2346 137.249 53.1024 138.404 54.954C139.304 54.1967 140.209 53.4462 141.086 52.6642C141.037 52.6338 140.941 52.5725 140.893 52.5421C140.646 52.7653 140.4 52.9946 140.12 53.1763C138.901 51.2914 137.682 49.4049 136.441 47.5354C136.472 47.4046 136.515 47.2764 136.568 47.1525C136.866 47.3876 137.199 47.5795 137.559 47.7018C138.169 47.9191 138.905 47.8122 139.389 47.3673C139.945 46.8638 140.187 46.1116 140.281 45.3874C139.907 45.682 139.484 45.9766 138.989 45.9757C138.482 45.924 138.002 45.7197 137.614 45.3899ZM127.395 45.5232C127.881 45.9655 128.289 46.4868 128.74 46.9648C129.231 46.4945 129.71 46.0105 130.184 45.5223C130.235 45.5551 130.287 45.5898 130.339 45.6249C130.637 45.8263 130.954 46.0397 131.331 45.9638C131.642 45.9426 131.804 45.637 132.069 45.5121C132.07 46.1616 131.921 46.8443 131.491 47.3486C130.998 47.9378 130.067 48.1102 129.408 47.706C129.155 47.5829 128.987 47.3469 128.751 47.2017C128.756 48.7685 128.755 50.3346 128.753 51.9012C128.753 52.1106 128.753 52.3199 128.753 52.5293C129.103 52.7984 129.453 53.0667 129.813 53.3232C130.075 53.1517 130.276 52.8358 130.606 52.8061C129.83 53.5447 129.017 54.2477 128.208 54.9516C127.6 54.3785 126.978 53.8198 126.377 53.24C126.143 53.4505 125.926 53.6798 125.703 53.9014C125.667 53.8598 125.596 53.7774 125.561 53.7358C125.855 53.4081 126.184 53.1127 126.485 52.7909C126.48 52.0643 126.481 51.3376 126.482 50.6111C126.483 49.8181 126.485 49.0252 126.478 48.2325C126.316 47.8487 126.036 47.5159 125.833 47.1491C125.555 47.313 125.353 47.6543 125.008 47.6662C125.793 46.9402 126.614 46.2533 127.395 45.5232L127.395 45.5232ZM161.056 45.5147C160.33 46.1421 159.622 46.7908 158.9 47.4233C158.881 47.4417 158.86 47.4591 158.838 47.4767C158.767 47.5348 158.694 47.5945 158.705 47.6941C158.99 47.5634 159.21 47.3307 159.46 47.1457C159.811 47.5455 160.178 47.9327 160.512 48.347C160.5 49.7416 160.505 51.1369 160.51 52.5315L160.51 52.5327C160.331 52.6711 160.151 52.8077 159.972 52.9462C160.544 53.6178 161.131 54.2758 161.699 54.9515C162.292 54.3767 162.88 53.7952 163.45 53.1966C163.228 52.9224 162.963 52.6736 162.784 52.3697C162.775 51.3262 162.776 50.2824 162.778 49.2387L162.778 49.2385C162.779 48.6305 162.78 48.0226 162.778 47.4148C162.904 47.2866 163.029 47.1584 163.152 47.0276C163.573 47.4895 163.981 47.9794 164.344 48.4854C164.352 49.2423 164.351 49.9997 164.35 50.7573L164.35 50.7584C164.349 51.3303 164.348 51.9023 164.351 52.474C164.385 52.6747 164.242 52.8005 164.102 52.9232C164.046 52.9728 163.99 53.0219 163.947 53.0752C164.474 53.6641 165.011 54.2452 165.556 54.8182C166.139 54.2927 166.704 53.7476 167.291 53.2271C167.073 52.9868 166.831 52.7712 166.616 52.5301C166.623 51.4055 166.622 50.281 166.621 49.1564C166.62 48.5761 166.62 47.9958 166.62 47.4156C166.748 47.2832 166.877 47.1525 167.006 47.0209C167.452 47.4911 167.884 47.976 168.317 48.459C168.317 48.9132 168.317 49.3674 168.317 49.8218C168.317 50.7306 168.318 51.6397 168.317 52.5488C168.186 52.6795 168.053 52.8094 167.918 52.9342C168.477 53.6228 169.078 54.2774 169.651 54.954C170.465 54.1959 171.281 53.4394 172.074 52.6591C172.025 52.6286 171.927 52.5683 171.879 52.5377C171.718 52.7143 171.548 52.8834 171.382 53.0556C171.069 52.7548 170.762 52.448 170.46 52.1353C170.467 51.3679 170.465 50.6005 170.464 49.8331C170.463 49.0197 170.462 48.2062 170.47 47.3927C170.645 47.2527 170.814 47.1049 170.989 46.964C171.012 46.9442 171.036 46.9251 171.061 46.9058C171.168 46.8225 171.279 46.7364 171.259 46.5819C170.932 46.778 170.637 47.0234 170.316 47.228C169.792 46.6558 169.258 46.0929 168.74 45.5155C167.982 46.0784 167.238 46.6609 166.485 47.2314C165.948 46.6651 165.426 46.0852 164.893 45.5147C164.133 46.081 163.396 46.677 162.629 47.2314C162.117 46.6481 161.578 46.0895 161.056 45.5147ZM176.919 49.6418C176.309 48.6535 175.739 47.6389 175.089 46.6787C175.088 47.2361 175.088 47.7937 175.089 48.3513L175.089 48.3546C175.09 49.2167 175.091 50.0789 175.085 50.9408C175.7 50.5137 176.301 50.0655 176.919 49.6418Z" fill="rgb(255,255,255)" fill-rule="evenodd" />
			<path id="Path 2347" d="M153.879 47.5363C154.625 46.8521 155.397 46.1943 156.151 45.5178C156.687 46.129 157.209 46.7537 157.743 47.3674C158.02 47.1501 158.268 46.892 158.575 46.7129C158.552 46.8105 158.526 46.9115 158.435 46.9667C158.206 47.1577 157.978 47.3496 157.746 47.5354C157.749 49.1185 157.739 50.7007 157.751 52.2837C158.053 52.6249 158.365 52.9594 158.647 53.3192C158.882 53.1758 159.077 52.9796 159.301 52.8202C159.348 52.8455 159.444 52.8957 159.492 52.9203C158.747 53.6197 157.974 54.2903 157.197 54.9531C156.681 54.3319 156.151 53.7207 155.623 53.1087C155.393 53.3175 155.201 53.5705 154.95 53.7521C154.914 53.719 154.843 53.6511 154.807 53.6172C155.031 53.405 155.242 53.1792 155.469 52.9687C155.487 51.5308 155.47 50.0912 155.478 48.6532C155.464 48.4529 155.529 48.2161 155.373 48.0565C155.096 47.7128 154.842 47.3512 154.548 47.0227C154.329 47.2002 154.121 47.3928 153.879 47.5363L153.879 47.5363Z" fill="rgb(255,255,255)" fill-rule="evenodd" />
		</g>
	</g>
</svg>
