<svg viewBox="0 0 107.614 20" xmlns="http://www.w3.org/2000/svg" xmlns:xlink="http://www.w3.org/1999/xlink" width="107.614014" height="20.000000" fill="none" customFrame="#000000">
	<g id="chase">
		<path id="Path 2343" d="M94.0574 0.70634C94.0578 0.31604 94.3744 -0.00011 94.7647 0L94.7647 1e-05L101.179 0.00154L107.135 5.65609L94.0574 5.65609L94.0574 0.70634ZM87.6084 12.8473C87.6082 13.2375 87.9245 13.5539 88.3147 13.554L93.2645 13.554L93.2645 0.476L87.6091 6.43141L87.6084 12.8473ZM107.614 7.15346C107.614 6.96612 107.54 6.78643 107.407 6.6541C107.274 6.52177 107.095 6.44771 106.907 6.44827L101.958 6.44827L101.958 19.5253L107.612 13.5684L107.614 7.15346ZM101.163 19.2933C101.163 19.6828 100.848 19.9989 100.458 20L94.0406 19.9986L88.0861 14.3441L101.163 14.3441L101.163 19.2933Z" fill="rgb(6.89474,101.295,189.605)" fill-rule="evenodd" />
		<path id="Path 2344" d="M54.987 2.38008C53.1449 2.38008 51.2597 3.48596 51.2597 6.3324L51.2597 7.06365C51.2597 10.0291 53.0755 11.1624 54.8908 11.1706L61.2672 11.1706C61.9293 11.1706 62.4676 11.2802 62.4676 12.4001L62.4668 13.6943C62.4503 14.6977 61.9473 14.9298 61.2444 14.9298L52.8567 14.9298L51.1384 17.6085L61.4407 17.6085C63.9264 17.6085 65.613 16.3731 65.613 13.5167L65.613 12.4674C65.613 9.70639 64.0462 8.40351 61.6158 8.40351L55.5278 8.40351C54.8523 8.40351 54.3826 8.21821 54.3826 7.21849L54.3819 6.16607C54.3819 5.31466 54.7053 5.00365 55.4916 5.00365L63.4792 5.00058L65.1492 2.3772L54.987 2.38008ZM0 7.14126C0 4.32107 1.61044 2.38448 4.79892 2.38448L4.79893 2.38448L14.4008 2.38467L12.69 5.08126L5.41673 5.08126C3.73232 5.08126 3.16913 5.73049 3.16913 7.39459L3.16913 12.5513C3.16913 14.2725 3.83867 14.828 5.37572 14.828L12.6145 14.828L14.3953 17.6106L4.78245 17.6126C2.07418 17.6126 0 16.0886 0 12.8259L0 7.14126ZM27.667 8.42536L27.667 2.38641L30.7361 2.38641L30.7361 17.6122L27.667 17.6122L27.667 11.0706L19.2526 11.0706L19.2526 17.6122L16.1891 17.6122L16.1891 2.38525L19.2526 2.3864L19.2526 8.42536L27.667 8.42536ZM68.4347 2.3864L68.4347 17.6095L81.8801 17.6087L80.1763 14.9298L71.509 14.9298L71.509 11.0706L79.9017 11.0706L79.9017 8.48898L71.509 8.48898L71.509 5.00365L80.1621 5.00365L81.8314 2.3864L68.4347 2.3864ZM32.4203 17.6106L39.6407 2.3887L42.6767 2.38851L49.9135 17.6106L46.4868 17.6106L45.085 14.467L37.2396 14.467L35.8334 17.6106L32.4203 17.6106ZM43.9284 11.876L41.1538 5.54826L38.3967 11.876L43.9284 11.876Z" fill="rgb(255,255,255)" fill-rule="evenodd" />
	</g>
</svg>
