<svg viewBox="0 0 1060.16 983.733" xmlns="http://www.w3.org/2000/svg" xmlns:xlink="http://www.w3.org/1999/xlink" width="1060.155762" height="983.732666" fill="none" customFrame="#000000">
	<g id="Design elements" opacity="0.159999996">
		<path id="Ellipse 398" d="M283.5 2e-05C126.927 2e-05 0.00014 126.927 0.00014 283.5C0.00014 440.073 126.927 567 283.5 567C440.073 567 567 440.073 567 283.5C567 126.927 440.073 2e-05 283.5 2e-05ZM242.316 3.97861C255.899 1.99289 269.627 1.00003 283.5 1.00003C297.364 1.00003 311.083 1.99154 324.657 3.97457C329.938 4.7461 335.197 5.66772 340.435 6.73943C349.636 8.62224 358.698 10.9532 367.62 13.7323C376.368 16.4573 384.982 19.6131 393.462 23.1999C400.665 26.2468 407.718 29.5816 414.62 33.204C423.832 38.0388 432.774 43.3861 441.448 49.246C448.445 53.9732 455.205 58.9916 461.728 64.3014C469.217 70.3977 476.394 76.878 483.258 83.7424C490.212 90.6963 496.771 97.9705 502.937 105.565C508.159 111.998 513.098 118.66 517.754 125.552C523.687 134.333 529.093 143.389 533.974 152.72C537.528 159.513 540.804 166.453 543.8 173.539C547.402 182.053 550.568 190.703 553.301 199.488C556.065 208.376 558.385 217.401 560.261 226.565C561.309 231.688 562.214 236.831 562.975 241.996C564.992 255.682 566 269.517 566 283.5C566.001 297.474 564.994 311.3 562.979 324.977C562.217 330.151 561.311 335.303 560.261 340.435C558.376 349.643 556.043 358.712 553.261 367.64C550.538 376.381 547.384 384.988 543.8 393.461C540.783 400.596 537.483 407.582 533.901 414.42C529.039 423.702 523.657 432.711 517.754 441.448C513.043 448.422 508.041 455.16 502.751 461.664C496.639 469.176 490.142 476.374 483.258 483.258C476.369 490.146 469.166 496.648 461.648 502.763C455.15 508.049 448.416 513.046 441.448 517.754C432.706 523.66 423.691 529.045 414.404 533.91C407.571 537.488 400.59 540.785 393.462 543.8C384.954 547.398 376.311 550.563 367.534 553.294C358.639 556.062 349.606 558.384 340.435 560.261C335.32 561.307 330.184 562.211 325.026 562.972C311.333 564.991 297.491 566 283.5 566C269.498 566 255.646 564.989 241.942 562.967C236.796 562.207 231.67 561.305 226.565 560.261C217.4 558.385 208.372 556.064 199.483 553.299C190.7 550.567 182.052 547.401 173.539 543.8C166.444 540.8 159.496 537.52 152.694 533.961C143.372 529.083 134.325 523.681 125.552 517.754C118.647 513.089 111.973 508.14 105.529 502.906C97.9474 496.75 90.6854 490.2 83.7425 483.258C76.8606 476.376 70.3648 469.18 64.2548 461.67C58.9624 455.165 53.9594 448.424 49.2461 441.448C43.3896 432.779 38.045 423.842 33.2123 414.635C29.5867 407.729 26.2493 400.671 23.2 393.461C19.6021 384.955 16.4377 376.313 13.7069 367.537C10.9391 358.642 8.61659 349.607 6.73956 340.435C5.66842 335.2 4.74722 329.944 3.97594 324.665C1.99207 311.089 1.00015 297.367 1.00015 283.5C1.00015 269.63 1.9925 255.906 3.97723 242.326C4.74824 237.05 5.66902 231.797 6.73955 226.565C8.61682 217.391 10.9397 208.356 13.7081 199.459C16.4386 190.684 19.6026 182.044 23.2 173.539C26.2266 166.383 29.5373 159.376 33.132 152.518C37.9856 143.258 43.357 134.269 49.2461 125.552C53.9239 118.628 58.8871 111.936 64.1358 105.476C70.2802 97.9137 76.8157 90.6691 83.7425 83.7424C90.676 76.8088 97.9279 70.2672 105.498 64.1177C111.952 58.8756 118.636 53.9184 125.552 49.246C134.265 43.3597 143.249 37.9907 152.504 33.139C159.367 29.5416 166.378 26.2285 173.539 23.1999C182.056 19.5975 190.708 16.4298 199.496 13.6967C208.381 10.9332 217.404 8.61415 226.565 6.73943C231.794 5.66959 237.044 4.74931 242.316 3.97861Z" fill="rgb(112,112,112)" fill-rule="evenodd" transform="matrix(0.906308,-0.422618,0.422618,0.906308,0,358.38)" />
		<path id="Ellipse 401" d="M283.5 2e-05C126.927 2e-05 0.00014 126.703 0.00014 283C0.00014 439.297 126.927 566 283.5 566C440.073 566 567 439.297 567 283C567 126.703 440.073 2e-05 283.5 2e-05ZM242.191 3.99153C255.815 1.99716 269.584 0.999969 283.5 0.999969L283.5 1.00002C297.422 1.00002 311.199 1.99813 324.828 3.99436C330.052 4.75942 335.254 5.67108 340.435 6.72934C349.681 8.61794 358.786 10.9583 367.75 13.7504C376.453 16.4613 385.024 19.5981 393.462 23.1608C400.762 26.2429 407.907 29.62 414.897 33.2922C424.011 38.0802 432.862 43.3698 441.449 49.1611C448.501 53.9174 455.313 58.9694 461.884 64.3171C469.317 70.3654 476.441 76.7919 483.258 83.5965C490.299 90.6248 496.936 97.9809 503.168 105.665C508.305 111.998 513.167 118.554 517.755 125.333C523.714 134.138 529.143 143.221 534.042 152.581C537.57 159.322 540.822 166.206 543.801 173.234C547.452 181.851 550.657 190.607 553.415 199.502C556.129 208.256 558.411 217.144 560.261 226.166C561.347 231.464 562.278 236.783 563.056 242.125C565.019 255.607 566 269.232 566 283C566 296.781 565.017 310.419 563.05 323.914C562.274 329.243 561.344 334.549 560.261 339.834C558.409 348.869 556.123 357.77 553.403 366.536C550.648 375.418 547.447 384.161 543.801 392.766C540.796 399.857 537.512 406.801 533.948 413.599C529.074 422.896 523.676 431.919 517.755 440.668C513.172 447.439 508.316 453.988 503.185 460.314C496.948 468.006 490.306 475.369 483.258 482.404C476.52 489.13 469.48 495.488 462.139 501.476C455.49 506.9 448.593 512.021 441.449 516.839C432.923 522.589 424.137 527.845 415.09 532.606C408.039 536.318 400.83 539.729 393.462 542.839C385.08 546.378 376.567 549.497 367.923 552.196C358.903 555.012 349.741 557.37 340.435 559.271C335.238 560.332 330.02 561.246 324.78 562.013C311.165 564.004 297.406 565 283.5 565C269.583 565 255.812 564.003 242.187 562.008C236.958 561.242 231.751 560.33 226.565 559.271C217.256 557.369 208.09 555.009 199.066 552.192C190.426 549.494 181.916 546.377 173.538 542.839C166.162 539.725 158.944 536.309 151.885 532.593C142.848 527.835 134.07 522.584 125.552 516.839C118.441 512.043 111.575 506.947 104.954 501.551C97.5796 495.541 90.509 489.159 83.7419 482.404C76.7292 475.403 70.1174 468.078 63.9064 460.427C58.7424 454.065 53.8555 447.479 49.2457 440.668C43.3052 431.89 37.8915 422.837 33.0045 413.507C29.459 406.739 26.1908 399.825 23.1998 392.766C19.5808 384.225 16.4004 375.548 13.6587 366.734C10.9121 357.904 8.60566 348.937 6.73949 339.834C5.66217 334.578 4.73652 329.301 3.96254 324.001C1.98761 310.478 1.00015 296.811 1.00015 283C1.00015 269.201 1.98585 255.546 3.95727 242.035C4.73232 236.723 5.65972 231.434 6.73948 226.166C8.59935 217.093 10.8966 208.156 13.6311 199.355C16.379 190.511 19.5686 181.804 23.1997 173.234C26.1747 166.212 29.4241 159.335 32.9479 152.601C37.8495 143.233 43.2821 134.144 49.2456 125.333C53.8347 118.552 58.6985 111.994 63.837 105.659C70.068 97.9772 76.7029 90.6231 83.7418 83.5965C90.5629 76.7875 97.6921 70.3572 105.129 64.3056C111.697 58.9622 118.504 53.914 125.552 49.1611C134.157 43.3577 143.027 38.0581 152.161 33.2621C159.132 29.6016 166.258 26.2345 173.538 23.1608C181.937 19.6146 190.468 16.4903 199.13 13.7879C208.133 10.9793 217.278 8.62641 226.565 6.72931C231.752 5.66976 236.961 4.75716 242.191 3.99153Z" fill="rgb(112,112,112)" fill-rule="evenodd" transform="matrix(0.906308,-0.422618,0.422618,0.906308,52.4048,470.762)" />
		<path id="Ellipse 403" d="M283.5 2e-05C126.927 2e-05 0.00015 126.703 0.00015 283C0.00015 439.297 126.927 566 283.5 566C440.073 566 567 439.297 567 283C567 126.703 440.073 2e-05 283.5 2e-05ZM283.5 1.00002C297.421 1.00002 311.197 1.99799 324.826 3.99394C330.05 4.75908 335.253 5.67088 340.435 6.72934C349.711 8.62398 358.844 10.9733 367.836 13.7772C376.51 16.482 385.052 19.6099 393.462 23.1608C400.732 26.2302 407.848 29.5921 414.81 33.2467C423.955 38.0467 432.834 43.3515 441.449 49.1611C448.521 53.9306 455.351 58.9974 461.939 64.3615C469.352 70.3968 476.459 76.8085 483.258 83.5965C490.304 90.6291 496.944 97.9898 503.18 105.679C508.312 112.008 513.171 118.559 517.755 125.333C523.709 134.131 529.134 143.207 534.03 152.559C537.562 159.307 540.819 166.198 543.801 173.234C547.452 181.851 550.657 190.607 553.415 199.502C556.129 208.256 558.411 217.144 560.261 226.166C561.347 231.464 562.278 236.783 563.056 242.125C565.019 255.607 566 269.232 566 283C566 296.781 565.017 310.419 563.05 323.914C562.274 329.243 561.344 334.549 560.261 339.834C558.402 348.901 556.107 357.832 553.375 366.628C550.626 375.478 547.434 384.191 543.801 392.766C540.808 399.829 537.538 406.746 533.99 413.518C529.105 422.843 523.693 431.893 517.755 440.668C513.143 447.481 508.255 454.069 503.089 460.432C496.88 468.081 490.269 475.405 483.258 482.404C476.499 489.151 469.438 495.526 462.073 501.53C455.443 506.934 448.569 512.037 441.449 516.839C432.935 522.581 424.161 527.83 415.128 532.586C408.065 536.305 400.843 539.723 393.462 542.839C385.05 546.391 376.506 549.52 367.829 552.225C358.84 555.028 349.708 557.377 340.435 559.271C335.238 560.332 330.02 561.246 324.78 562.013C311.165 564.004 297.406 565 283.5 565C269.583 565 255.811 564.003 242.186 562.008C236.957 561.242 231.751 560.33 226.565 559.271C217.255 557.369 208.088 555.009 199.063 552.191C190.424 549.494 181.916 546.376 173.538 542.839C166.161 539.724 158.943 536.309 151.883 532.592C142.846 527.834 134.069 522.583 125.552 516.839C118.465 512.06 111.621 506.982 105.02 501.606C97.6221 495.58 90.5293 489.179 83.7419 482.404C76.7248 475.399 70.1091 468.069 63.8949 460.413C58.735 454.056 53.852 447.474 49.2457 440.668C43.3226 431.916 37.9232 422.89 33.0474 413.59C29.4854 406.795 26.2028 399.854 23.1997 392.766C19.5936 384.256 16.423 375.61 13.6879 366.828C10.9285 357.968 8.61231 348.97 6.73949 339.834C5.66217 334.578 4.73652 329.301 3.96254 324.001C1.98761 310.478 1.00015 296.811 1.00015 283C1.00015 269.201 1.98586 255.546 3.95728 242.035C4.73233 236.723 5.65973 231.434 6.73949 226.166C8.59617 217.109 10.8887 208.187 13.6171 199.401C16.3682 190.541 19.5624 181.818 23.1997 173.234C26.1686 166.227 29.4107 159.363 32.9262 152.642C37.8335 143.26 43.2733 134.157 49.2457 125.333C53.8343 118.552 58.6976 111.995 63.8356 105.661C70.067 97.9784 76.7024 90.6236 83.7419 83.5965C90.5621 76.7883 97.6903 70.3588 105.127 64.3079C111.695 58.9636 118.503 53.9146 125.552 49.1611C134.154 43.36 143.02 38.0622 152.15 33.2676C159.125 29.605 166.255 26.236 173.538 23.1608C181.95 19.6093 190.493 16.481 199.169 13.7758C208.159 10.9725 217.291 8.62369 226.565 6.72931C231.75 5.6702 236.957 4.75792 242.184 3.99248C255.81 1.99747 269.582 0.999969 283.5 0.999969L283.5 1.00002Z" fill="rgb(112,112,112)" fill-rule="evenodd" transform="matrix(0.906308,-0.422618,0.422618,0.906308,307.077,352.007)" />
	</g>
</svg>
