<svg viewBox="0 0 500.282 388.195" xmlns="http://www.w3.org/2000/svg" xmlns:xlink="http://www.w3.org/1999/xlink" width="500.282227" height="388.195404" fill="none" customFrame="#000000">
	<g id="Design Elements">
		<path id="Rectangle 376" d="M-6.00025e-05 8.72396L-6.00025e-05 3.00298C-6.00025e-05 1.34613 1.34309 0.00298012 2.99994 0.00298012L8.72092 0.00298012C10.3778 0.00298012 11.7209 1.34613 11.7209 3.00298L11.7209 8.72396C11.7209 10.3808 10.3778 11.724 8.72092 11.724L2.99994 11.724C1.34309 11.724 -6.00025e-05 10.3808 -6.00025e-05 8.72396Z" fill="rgb(240.223,128.266,100.277)" fill-rule="evenodd" transform="matrix(0.0348995,0.999391,-0.999391,0.0348995,499.873,376.073)" />
		<path id="Rectangle 374" d="M-0.000890032 10.7174L-0.000890032 2.99641C-0.000890032 1.33956 1.34226 -0.00359013 2.99911 -0.00359013L10.7201 -0.00359013C12.3769 -0.00359013 13.7201 1.33956 13.7201 2.99641L13.7201 10.7174C13.7201 12.3742 12.3769 13.7174 10.7201 13.7174L2.99911 13.7174C1.34226 13.7174 -0.000890032 12.3742 -0.000890032 10.7174Z" fill="rgb(135.5,54.2,0)" fill-rule="evenodd" transform="matrix(-0.224951,0.97437,-0.97437,-0.224951,431.888,3.08643)" />
		<path id="Rectangle 375" d="M-0.000550009 25.7223L-0.000550009 3.0013C-0.000550009 1.34445 1.3426 0.00130002 2.99945 0.00130002L25.7204 0.00130002C27.3773 0.00130002 28.7204 1.34445 28.7204 3.0013L28.7204 25.7223C28.7204 27.3791 27.3773 28.7223 25.7204 28.7223L2.99945 28.7223C1.3426 28.7223 -0.000550009 27.3791 -0.000550009 25.7223Z" fill="rgb(184,250.7,253)" fill-rule="evenodd" transform="matrix(0.669131,0.743145,-0.743145,0.669131,21.3435,29.9419)" />
	</g>
</svg>
