<svg viewBox="0 0 856.042 864.452" xmlns="http://www.w3.org/2000/svg" xmlns:xlink="http://www.w3.org/1999/xlink" width="856.041992" height="864.452148" fill="none" customFrame="#000000">
	<g id="Design Elements">
		<path id="Rectangle 368" d="M0.00376812 12.2435L0.00376812 2.99878C0.00376812 1.34193 1.34691 -0.00122019 3.00377 -0.00122019L12.2385 -0.00122019C13.8954 -0.00122019 15.2385 1.34193 15.2385 2.99878L15.2385 12.2435C15.2385 13.9004 13.8954 15.2435 12.2385 15.2435L3.00377 15.2435C1.34691 15.2435 0.00376812 13.9004 0.00376812 12.2435Z" fill="rgb(87.5,143.333,255)" fill-rule="evenodd" transform="matrix(-0.956305,0.292372,-0.292372,-0.956305,641.777,167.614)" />
		<path id="Rectangle 369" d="M-0.00158025 12.2401L-0.00158025 2.9953C-0.00158025 1.33845 1.34157 -0.00470073 2.99842 -0.00470073L12.2432 -0.00470073C13.9 -0.00470073 15.2432 1.33845 15.2432 2.9953L15.2432 12.2401C15.2432 13.8969 13.9 15.2401 12.2432 15.2401L2.99842 15.2401C1.34157 15.2401 -0.00158025 13.8969 -0.00158025 12.2401Z" fill="rgb(255,117.9,26.5)" fill-rule="evenodd" transform="matrix(-0.224951,0.97437,-0.97437,-0.224951,316.935,774.531)" />
		<path id="Rectangle 370" d="M0.0012602 12.2442L0.0012602 2.99944C0.0012602 1.34259 1.34441 -0.000560087 3.00126 -0.000560087L12.246 -0.000560087C13.9029 -0.000560087 15.246 1.34259 15.246 2.99944L15.246 12.2442C15.246 13.9011 13.9029 15.2442 12.246 15.2442L3.00126 15.2442C1.34441 15.2442 0.0012602 13.9011 0.0012602 12.2442Z" fill="rgb(129.875,94,237.5)" fill-rule="evenodd" transform="matrix(0.529919,0.848048,-0.848048,0.529919,85.8447,421.182)" />
		<path id="Rectangle 371" d="M-0.00289197 6.52905L-0.00289197 2.99607C-0.00289197 1.33921 1.34025 -0.00393268 2.99711 -0.00393268L6.53009 -0.00393268C8.18695 -0.00393268 9.53009 1.33921 9.53009 2.99607L9.53009 6.52905C9.53009 8.18591 8.18695 9.52905 6.53009 9.52905L2.99711 9.52905C1.34025 9.52905 -0.00289197 8.18591 -0.00289197 6.52905Z" fill="rgb(39.7714,42.3193,90.7286)" fill-rule="evenodd" transform="matrix(-0.681998,0.731354,-0.731354,-0.681998,730.696,491.416)" />
	</g>
</svg>
