<svg viewBox="0 0 36.0366 36.0366" xmlns="http://www.w3.org/2000/svg" xmlns:xlink="http://www.w3.org/1999/xlink" width="36.036621" height="36.036621" fill="none" customFrame="#000000">
	<defs>
		<linearGradient id="paint_linear_0" x1="-0.00144004822" x2="36.038559" y1="36.0382996" y2="36.0382996" gradientUnits="userSpaceOnUse">
			<stop stop-color="rgb(255,255,255)" offset="0" stop-opacity="0.200000003" />
			<stop stop-color="rgb(255,255,255)" offset="1" stop-opacity="9.99999975e-05" />
		</linearGradient>
	</defs>
	<g id="Group 501">
		<path id="Path 2325" d="M18.0176 7.50871C20.4447 7.50871 22.6733 8.33978 24.4524 9.72187L29.9127 4.51204C26.738 1.71322 22.5823 0.00168986 18.0176 0.00168986C11.1005 0.00168986 5.1019 3.9052 2.08308 9.62547L8.15476 14.4193C9.6256 10.3905 13.4801 7.50872 18.0176 7.50872L18.0176 7.50871Z" fill="rgb(245.323,89.32,78.1769)" fill-rule="evenodd" />
		<path id="Path 2326" d="M35.8787 20.2709C35.9725 19.5326 36.0347 18.7794 36.0347 18.0154C36.0347 16.727 35.894 15.4725 35.6372 14.2607L18.0181 14.2607L18.0181 21.7701L27.7564 21.7701C26.9686 23.8183 25.5659 25.5514 23.7804 26.7555L29.8752 31.5688C33.1061 28.7319 35.317 24.7594 35.8787 20.2709L35.8787 20.2709Z" fill="rgb(57.1923,160.106,244.308)" fill-rule="evenodd" />
		<path id="Path 2327" d="M7.50322 18.0153C7.50322 16.7488 7.73856 15.54 8.14872 14.4155L2.08063 9.62075C0.758108 12.1288 0.00143888 14.9822 0.00143888 18.0153C0.00143888 21.0145 0.7442 23.8363 2.03925 26.324L8.11503 21.5231C7.72592 20.4246 7.50322 19.2473 7.50322 18.0153L7.50322 18.0153Z" fill="rgb(255,199.375,32.5)" fill-rule="evenodd" />
		<path id="Path 2328" d="M18.0177 28.5268C13.4452 28.5268 9.56558 25.601 8.1203 21.5232L2.0404 26.324C5.04469 32.0909 11.066 36.0349 18.0177 36.0349C22.5635 36.0349 26.7088 34.3459 29.8747 31.5665L23.78 26.7541C22.1332 27.8645 20.1622 28.5268 18.0177 28.5268L18.0177 28.5268Z" fill="rgb(0,201.5,110.825)" fill-rule="evenodd" />
		<path id="Path 2329" d="M18.0147 35.6596C12.7122 35.6596 7.9443 33.4719 4.57335 29.9866C7.87318 33.6896 12.6644 36.0349 18.0147 36.0349C23.3156 36.0349 28.0671 33.7358 31.3595 30.0908C27.9986 33.5196 23.2668 35.6596 18.0147 35.6596Z" opacity="0.100000001" fill="rgb(255,255,255)" fill-rule="evenodd" />
		<path id="Path 2330" d="M18.0181 21.3951L18.0181 21.776L27.7586 21.776L27.9107 21.3951L18.0181 21.3951Z" opacity="0.100000001" fill="rgb(255,255,255)" fill-rule="evenodd" />
		<path id="Path 2331" d="M36.028 18.2397C36.029 18.1651 36.0352 18.0916 36.0352 18.0167C36.0352 17.9955 36.0324 17.975 36.0323 17.9538C36.0315 18.0493 36.0274 18.1438 36.028 18.2397Z" fill="rgb(37.75,37.75,37.75)" fill-rule="evenodd" />
		<path id="Path 2332" d="M18.0181 14.2607L18.0181 14.6415L35.7108 14.6415C35.6872 14.5158 35.6614 14.3854 35.6353 14.2607L18.0181 14.2607Z" opacity="0.200000003" fill="rgb(12.75,12.75,12.75)" fill-rule="evenodd" />
		<path id="Path 2333" d="M35.6371 14.2649L18.0181 14.2649L18.0181 21.7718L27.7564 21.7718C26.2419 25.7078 22.488 28.528 18.0181 28.528C12.2138 28.528 7.50837 23.8226 7.50837 18.0183C7.50837 12.2139 12.2138 7.50863 18.0181 7.50863C20.1228 7.50863 22.0627 8.15521 23.7061 9.22124C23.9576 9.38473 24.2171 9.53822 24.4535 9.72177L29.9142 4.51201L29.791 4.41725C26.6314 1.67885 22.5275 0.00169984 18.0181 0.00169984C8.06772 0.00169984 0.00143986 8.06798 0.00143986 18.0183C0.00143986 27.9686 8.06772 36.0349 18.0181 36.0349C27.203 36.0349 34.7668 29.1567 35.8787 20.2731C35.9725 19.535 36.0347 18.7821 36.0347 18.0183C36.0347 16.7304 35.894 15.4762 35.6371 14.2649L35.6371 14.2649Z" fill="url(#paint_linear_0)" fill-rule="evenodd" />
		<path id="Path 2334" d="M23.7044 8.84685C22.061 7.78087 20.1212 7.13431 18.0164 7.13431C12.2121 7.13431 7.50665 11.8394 7.50665 17.6435C7.50665 17.7069 7.5075 17.7563 7.5086 17.8195C7.60985 12.1029 12.2754 7.50964 18.0164 7.50964C20.1211 7.50964 22.061 8.1562 23.7044 9.22218C23.956 9.38566 24.2155 9.53914 24.4518 9.72268L29.9126 4.51315L24.4518 9.34735C24.2155 9.16381 23.956 9.01032 23.7044 8.84685L23.7044 8.84685Z" opacity="0.100000001" fill="rgb(255,255,255)" fill-rule="evenodd" />
		<path id="Path 2335" d="M18.0171 0.376987C22.4836 0.376987 26.5489 2.02588 29.6962 4.71784L29.9127 4.51141L29.7475 4.36757C26.5881 1.62952 22.5263 0.00168963 18.0171 0.00168963C8.0673 0.00168963 0.00144979 8.06696 0.00144979 18.016C0.00144979 18.0794 0.0102485 18.1405 0.0108884 18.2037C0.112603 8.34211 8.13062 0.376987 18.0171 0.376987Z" opacity="0.200000003" fill="rgb(12.75,12.75,12.75)" fill-rule="evenodd" />
	</g>
</svg>
