<svg viewBox="0 0 74 54.2667" xmlns="http://www.w3.org/2000/svg" xmlns:xlink="http://www.w3.org/1999/xlink" width="74.000000" height="54.266663" fill="none" customFrame="#000000">
	<g id="Icon">
		<g id="laptop_1_">
			<g id="Group 468">
				<g id="Group 465">
					<g id="Group 464">
						<g id="Group 463">
							<path id="Path 2354" d="M67.8301 44.4C67.1494 44.4 66.5969 43.8475 66.5969 43.1667L66.5969 3.70001C66.5969 3.02168 66.0444 2.46668 65.3637 2.46668L8.63629 2.46668C7.95557 2.46668 7.40309 3.02168 7.40309 3.70001L7.40309 43.1667C7.40309 43.8475 6.85062 44.4 6.16989 44.4C5.48916 44.4 4.93669 43.8475 4.93669 43.1667L4.93669 3.70001C4.93669 1.66008 6.59659 1e-05 8.6363 1e-05L65.3637 1e-05C67.4035 1e-05 69.0633 1.66008 69.0633 3.70001L69.0633 43.1667C69.0633 43.8475 68.5109 44.4 67.8301 44.4L67.8301 44.4Z" fill="rgb(0,180.5,78.2167)" fill-rule="evenodd" />
						</g>
					</g>
				</g>
				<g id="Group 467">
					<g id="Group 466">
						<path id="Path 2355" d="M67.8333 54.2634L6.16667 54.2634C2.76514 54.2634 0 51.4982 0 48.0967C0 47.4159 0.55253 46.8634 1.23333 46.8634L28.3667 46.8634C29.0475 46.8634 29.6 47.4159 29.6 48.0967C29.6 48.7775 29.0475 49.33 28.3667 49.33L2.67879 49.33C3.18692 50.7656 4.55839 51.7967 6.16666 51.7967L67.8333 51.7967C69.4416 51.7967 70.8131 50.7656 71.3212 49.33L45.6333 49.33C44.9525 49.33 44.4 48.7775 44.4 48.0967C44.4 47.4159 44.9525 46.8634 45.6333 46.8634L72.7667 46.8634C73.4475 46.8634 74 47.4159 74 48.0967C74 51.4982 71.2349 54.2634 67.8333 54.2634Z" fill="rgb(0,180.5,78.2167)" fill-rule="evenodd" />
					</g>
				</g>
			</g>
		</g>
		<path id="Path 2356" d="M25.896 35.2666C25.6075 35.2666 25.319 35.1655 25.0847 34.9608L15.2217 26.3293C14.9529 26.0951 14.8 25.7597 14.8 25.4021C14.8 25.0445 14.9529 24.7091 15.2217 24.4748L25.0847 15.8434C25.5951 15.3921 26.3718 15.4414 26.8255 15.9593C27.2743 16.4722 27.2225 17.2491 26.7097 17.6979L17.9044 25.4021L26.7072 33.1063C27.2201 33.5551 27.2718 34.3319 26.8231 34.8449C26.579 35.1236 26.2387 35.2666 25.8959 35.2666L25.896 35.2666Z" fill="rgb(255,255,255)" fill-rule="evenodd" />
		<path id="Path 2357" d="M33.298 37.7399C33.1697 37.7399 33.0389 37.7202 32.9081 37.6783C32.2615 37.4611 31.9135 36.7628 32.1282 36.1164L39.5321 13.9093C39.7468 13.2629 40.4403 12.91 41.0918 13.1296C41.7385 13.3468 42.0864 14.045 41.8717 14.6915L34.4678 36.8985C34.2951 37.4118 33.8138 37.7399 33.298 37.7399Z" fill="rgb(255,255,255)" fill-rule="evenodd" />
		<path id="Path 2358" d="M48.0972 35.2666C47.7543 35.2666 47.4138 35.1235 47.1695 34.8449C46.7205 34.332 46.7723 33.5552 47.2855 33.1064L56.0937 25.4026L47.2855 17.6988C46.7723 17.25 46.7205 16.4732 47.1695 15.9602C47.6186 15.4424 48.3982 15.3955 48.9114 15.8443L58.7805 24.4753C59.047 24.7096 59.1999 25.045 59.1999 25.4026C59.1999 25.7601 59.047 26.0955 58.778 26.3298L48.909 34.9608C48.6746 35.1655 48.3859 35.2666 48.0972 35.2666L48.0972 35.2666Z" fill="rgb(255,255,255)" fill-rule="evenodd" />
	</g>
</svg>
