<svg viewBox="0 0 40.197 59.6165" xmlns="http://www.w3.org/2000/svg" xmlns:xlink="http://www.w3.org/1999/xlink" width="40.197021" height="59.616516" fill="none" customFrame="#000000">
	<g id="Icon">
		<g id="Group 476">
			<path id="Path 2365" d="M26.4253 22.1074C27.376 22.3813 28.375 21.8496 28.6651 20.8991C28.9712 19.8519 29.1324 18.7564 29.1324 17.6448C29.1324 11.3294 23.9921 6.17408 17.6595 6.17408C11.3429 6.17408 6.18654 11.3133 6.18654 17.6448C6.18654 19.0464 6.42825 20.4158 6.92777 21.7046C7.20171 22.4296 7.87848 22.8646 8.60358 22.8646C8.81305 22.8646 9.02255 22.8324 9.23201 22.7518C10.1666 22.3974 10.6339 21.3663 10.2794 20.4319C9.94102 19.5458 9.76376 18.6114 9.76376 17.6448C9.76376 13.311 13.2927 9.76671 17.6433 9.76671C21.9779 9.76671 25.5229 13.2949 25.5229 17.6448C25.5229 18.402 25.4101 19.1592 25.2006 19.8841C24.9267 20.8347 25.4746 21.8335 26.4253 22.1074L26.4253 22.1074Z" fill="rgb(51,51,51)" fill-rule="evenodd" />
			<path id="Path 2366" d="M40.0409 36.024C40.0409 35.9463 40.028 35.8686 40.0021 35.7909C39.4195 33.2663 37.7366 31.6868 35.6135 31.6868C34.9921 31.6868 34.3966 31.8163 33.8529 32.0493C33.2704 30.2886 31.6133 29.0068 29.6585 29.0068C28.9335 29.0068 28.2475 29.1881 27.652 29.4988C26.927 28.0488 25.4253 27.0648 23.7035 27.0648C23.1598 27.0648 22.642 27.1684 22.163 27.3367L22.163 21.9508C22.163 19.5168 20.1823 17.523 17.7356 17.523C15.3018 17.523 13.3082 19.5039 13.3082 21.9508L13.3082 40.4129L11.7029 37.6294C11.1074 36.5548 10.1624 35.8168 9.02316 35.532C7.92277 35.2601 6.74472 35.4543 5.7738 36.0628C4.14266 37.0985 3.62482 39.416 4.4404 41.9406C4.4404 41.9536 4.45335 41.9665 4.45335 41.9795C4.62164 42.4844 8.77719 54.253 13.7225 59.1857C14.0072 59.4706 14.3697 59.613 14.7451 59.613C15.1206 59.613 15.483 59.4706 15.7678 59.1857C16.3375 58.6161 16.3245 57.7098 15.7678 57.1401C11.3663 52.7512 7.36611 41.5263 7.18487 41.0344C6.8224 39.895 6.88714 38.7816 7.32729 38.4968C7.62503 38.3156 7.97457 38.2508 8.31116 38.3285C8.67365 38.4191 8.95845 38.6651 9.17852 39.0535L13.4894 46.5238C13.8131 47.0935 14.4863 47.3653 15.1076 47.197C15.7419 47.0287 16.1821 46.4591 16.1821 45.7988L16.1821 21.9638C16.1821 21.1222 16.8682 20.4231 17.7227 20.4231C18.5641 20.4231 19.2632 21.1093 19.2632 21.9638L19.2632 38.4968C19.2632 39.2995 19.9105 39.9339 20.7002 39.9339C21.5028 39.9339 22.1371 39.2865 22.1371 38.4968L22.1371 31.3631C22.1371 31.3502 22.15 31.3372 22.15 31.3243C22.2277 30.5475 22.8879 29.9519 23.6776 29.9519C24.5191 29.9519 25.2182 30.6381 25.2182 31.4926L25.2182 33.4476L25.2182 34.9882L25.2182 39.0276C25.2182 39.8303 25.8655 40.4647 26.6551 40.4647C27.4578 40.4647 28.0921 39.8174 28.0921 39.0276L28.0921 34.9882L28.0921 33.4476C28.0921 32.606 28.7782 31.9069 29.6326 31.9069C30.4741 31.9069 31.1732 32.5931 31.1732 33.4476L31.1732 35.3766C31.1732 35.4673 31.1861 35.5579 31.199 35.6485C31.1861 35.8039 31.1732 35.9592 31.1732 36.1275L31.1732 39.0406C31.1732 39.8433 31.8204 40.4777 32.6101 40.4777C33.3998 40.4777 34.0471 39.8303 34.0471 39.0406L34.0471 36.1275C34.0471 35.286 34.7332 34.5869 35.5876 34.5869C36.5585 34.5869 36.9858 35.7392 37.1281 36.3347C37.2058 37.7459 37.8661 50.8739 35.4064 56.9071C35.1086 57.6451 35.4582 58.4866 36.1961 58.7844C36.3773 58.8621 36.5585 58.888 36.7398 58.888C37.3094 58.888 37.8531 58.5514 38.0732 57.9946C40.9471 51.0293 40.0798 36.6325 40.0409 36.024L40.0409 36.024Z" fill="rgb(0,180.5,78.2167)" fill-rule="evenodd" />
			<path id="Path 2367" d="M3.56177 26.671C3.83575 26.671 4.12582 26.6066 4.38369 26.4776C5.27007 26.0264 5.60851 24.9467 5.15727 24.0603C4.12584 22.062 3.61011 19.9187 3.61011 17.6464C3.61011 9.89487 9.9115 3.59374 17.6633 3.59374C25.4152 3.59374 31.7166 9.89487 31.7166 17.6464C31.7166 18.8712 31.5554 20.0798 31.2492 21.2562C30.9913 22.2232 31.5715 23.2062 32.5224 23.4479C33.4893 23.7058 34.4724 23.1256 34.7141 22.1748C35.1009 20.7083 35.2943 19.1935 35.2943 17.6464C35.2943 7.91268 27.3813 1.00002e-05 17.6472 1.00002e-05C7.91311 1.00002e-05 0.000108259 7.91268 0.000108259 17.6464C0.000108259 20.4344 0.676979 23.2223 1.93403 25.688C2.27247 26.3165 2.901 26.671 3.56176 26.671L3.56177 26.671Z" fill="rgb(51,51,51)" fill-rule="evenodd" />
		</g>
	</g>
</svg>
