<svg viewBox="0 0 64.7666 64.7667" xmlns="http://www.w3.org/2000/svg" xmlns:xlink="http://www.w3.org/1999/xlink" width="64.766602" height="64.766663" fill="none" customFrame="#000000">
	<g id="Icon">
		<path id="Path 2361" d="M24.4965 13.568L24.4965 13.6901C24.4965 15.1992 23.8498 16.639 22.7221 17.6406L16.714 22.9817L10.705 17.6398C9.57813 16.6382 8.9314 15.1984 8.9314 13.6901L8.9314 13.568C8.9314 12.2348 9.45049 10.9818 10.3937 10.0386C11.2498 9.1817 12.3892 8.71008 13.6009 8.71008C14.7683 8.71008 15.8688 9.14824 16.7139 9.94673C17.5591 9.14824 18.6596 8.71008 19.827 8.71008C21.0387 8.71008 22.1781 9.1817 23.0342 10.0386C23.9774 10.9818 24.4965 12.2348 24.4965 13.568ZM16.7139 20.8991L11.7393 16.4771C10.9439 15.7704 10.4879 14.7548 10.4879 13.6902L10.4879 13.568C10.4879 12.6504 10.8451 11.7881 11.4942 11.139C12.0568 10.5763 12.8055 10.2666 13.6009 10.2666C14.3963 10.2666 15.145 10.5763 15.7076 11.139L16.7139 12.1453L17.7202 11.139C18.8456 10.0144 20.8083 10.0144 21.9337 11.139C22.5828 11.7881 22.94 12.6504 22.94 13.568L22.94 13.6901C22.94 14.754 22.4839 15.7704 21.6885 16.4771L16.7139 20.8991Z" fill="rgb(255,255,255)" fill-rule="evenodd" />
		<path id="Path 2362" d="M33.428 8.35699L61.6328 8.35699C63.3606 8.35699 64.7667 9.76305 64.7667 11.4909L64.7667 34.4726C64.7667 36.2004 63.3606 37.6065 61.6328 37.6065L50.6308 37.6065L46.1473 42.9863C45.6772 43.5504 44.9867 43.8742 44.2524 43.8742C42.8923 43.8742 41.785 42.7669 41.785 41.4068L41.785 37.6065L39.6957 37.6065L39.6957 55.3651C39.6957 57.0929 38.2896 58.4989 36.5618 58.4989L25.071 58.4989L25.071 62.2993C25.071 63.6594 23.9637 64.7667 22.6036 64.7667C21.8692 64.7667 21.1787 64.4428 20.7086 63.8787L16.2251 58.4989L5.22312 58.4989C3.49531 58.4989 2.08925 57.0929 2.08925 55.3651L2.08925 34.4726C2.08925 32.7448 3.49531 31.3387 5.22312 31.3387L13.788 31.3387L12.0466 29.2495L3.13387 29.2495C1.40606 29.2495 2.38419e-07 27.8434 2.38419e-07 26.1156L2.38419e-07 3.13387C2.38419e-07 1.40606 1.40606 2.38419e-07 3.13387 2.38419e-07L30.2941 2.38419e-07C32.0219 2.38419e-07 33.428 1.40606 33.428 3.13387L33.428 8.35699ZM3.13387 27.1602C2.55828 27.1602 2.08925 26.6922 2.08925 26.1156L2.08925 3.13387C2.08925 2.55724 2.55829 2.08925 3.13387 2.08925L30.2941 2.08925C30.8697 2.08925 31.3387 2.55724 31.3387 3.13387L31.3387 26.1156C31.3387 26.6922 30.8697 27.1602 30.2941 27.1602L18.8032 27.1602L18.8032 33.0498C18.8032 33.3726 18.3415 33.5397 18.1347 33.2911L13.0244 27.1602L3.13387 27.1602ZM61.6328 35.5172C62.2084 35.5172 62.6774 35.0492 62.6774 34.4726L62.6774 11.4909C62.6774 10.9142 62.2084 10.4462 61.6328 10.4462L33.428 10.4462L33.428 26.1156C33.428 27.8434 32.0219 29.2495 30.2941 29.2495L29.2495 29.2495L29.2495 34.4726C29.2495 35.0492 29.7185 35.5172 30.2941 35.5172L43.8742 35.5172L43.8742 41.4068C43.8742 41.7285 44.3359 41.8946 44.5428 41.6481L49.6531 35.5172L61.6328 35.5172ZM20.8925 31.3387L27.1602 31.3387L27.1602 29.2495L20.8925 29.2495L20.8925 31.3387ZM37.6065 55.3651C37.6065 55.9417 37.1374 56.4097 36.5618 56.4097L22.9817 56.4097L22.9817 62.2993C22.9817 62.6221 22.52 62.7892 22.3132 62.5406L17.2029 56.4097L5.22312 56.4097C4.64753 56.4097 4.1785 55.9417 4.1785 55.3651L4.1785 34.4726C4.1785 33.896 4.64754 33.428 5.22312 33.428L15.5283 33.428L16.5301 34.6293C17.0002 35.1934 17.6907 35.5172 18.4251 35.5172C19.6556 35.5172 20.67 34.6084 20.8538 33.428L27.1602 33.428L27.1602 34.4726C27.1602 36.2004 28.5663 37.6065 30.2941 37.6065L37.6065 37.6065L37.6065 55.3651Z" fill="rgb(0,180.5,78.2167)" fill-rule="evenodd" />
		<path id="Path 2363" d="M24.2115 45.7187C24.0353 45.3344 23.9304 44.9106 23.9304 44.4602L23.9304 44.4602C23.9304 42.7847 25.293 41.4222 26.9684 41.4222C28.6439 41.4222 30.0064 42.7847 30.0064 44.4602C30.0064 45.2698 29.6836 46.0012 29.1656 46.5465C30.5707 47.3235 31.5254 48.8197 31.5254 50.5361L31.5254 52.0551L30.0064 52.0551L30.0064 50.5361C30.0064 48.8607 28.6439 47.4981 26.9684 47.4981C26.4899 47.4981 26.0312 47.6121 25.6135 47.8209C25.7335 48.168 25.8223 48.5311 25.8641 48.91L26.2044 51.9708L24.6952 52.1387L24.355 49.0779C24.1583 47.3113 22.6697 45.9792 20.8925 45.9792C19.1152 45.9792 17.6266 47.3113 17.4299 49.0779L17.0897 52.1387L15.5806 51.9708L15.9208 48.91C15.9633 48.5311 16.0514 48.168 16.1714 47.8209C15.7537 47.6121 15.295 47.4981 14.8165 47.4981C13.141 47.4981 11.7785 48.8607 11.7785 50.5361L11.7785 52.0551L10.2595 52.0551L10.2595 50.5361C10.2595 48.8197 11.2142 47.3235 12.6193 46.5465C12.1013 46.0012 11.7785 45.2698 11.7785 44.4602C11.7785 42.7847 13.141 41.4222 14.8165 41.4222C16.4919 41.4222 17.8545 42.7847 17.8545 44.4602C17.8545 44.9105 17.7497 45.3343 17.5735 45.7186C17.9008 45.4285 18.2654 45.1809 18.6595 44.9842C18.1644 44.4435 17.8545 43.7303 17.8545 42.9412C17.8545 41.2657 19.217 39.9032 20.8925 39.9032C22.5679 39.9032 23.9304 41.2657 23.9304 42.9412C23.9304 43.7303 23.6206 44.4435 23.1254 44.9842C23.5196 45.1809 23.8841 45.4285 24.2115 45.7187ZM20.8925 41.4222C20.0547 41.4222 19.3735 42.1035 19.3735 42.9412C19.3735 43.7789 20.0547 44.4602 20.8925 44.4602C21.7302 44.4602 22.4115 43.7789 22.4115 42.9412C22.4115 42.1035 21.7302 41.4222 20.8925 41.4222ZM13.2975 44.4602C13.2975 43.6225 13.9788 42.9412 14.8165 42.9412C15.6542 42.9412 16.3355 43.6225 16.3355 44.4602C16.3355 45.2979 15.6542 45.9792 14.8165 45.9792C13.9788 45.9792 13.2975 45.2979 13.2975 44.4602ZM26.9684 45.9792C27.8061 45.9792 28.4874 45.2979 28.4874 44.4602C28.4874 43.6225 27.8061 42.9412 26.9684 42.9412C26.1307 42.9412 25.4494 43.6225 25.4494 44.4602C25.4494 45.2979 26.1307 45.9792 26.9684 45.9792Z" fill="rgb(255,255,255)" fill-rule="evenodd" />
		<path id="Path 2364" d="M50.7044 20.1274L52.0032 20.1274C53.5773 20.1274 54.8575 21.4076 54.8575 22.9818L54.8575 27.2632C54.8575 28.8374 53.5773 30.1176 52.0032 30.1176L48.867 30.1176C47.4391 30.1176 46.0483 29.785 44.7824 29.1571C44.5876 29.7144 44.0631 30.1176 43.4402 30.1176L40.5858 30.1176C39.7988 30.1176 39.1587 29.4775 39.1587 28.6904L39.1587 21.5546C39.1587 20.7675 39.7988 20.1274 40.5858 20.1274L43.4402 20.1274C43.7584 20.1274 44.0496 20.2359 44.2872 20.4122L44.4977 20.2016C45.252 19.4467 45.7872 18.5019 46.0455 17.4672C46.2845 16.5131 47.1387 15.8459 48.1227 15.8459C48.9448 15.8459 49.7211 16.2056 50.2527 16.8335C50.7844 17.4608 51.0113 18.2857 50.8764 19.097L50.7044 20.1274ZM52.0032 28.6904C52.7902 28.6904 53.4303 28.0503 53.4303 27.2633L53.4303 22.9818C53.4303 22.1947 52.7902 21.5546 52.0032 21.5546L49.0204 21.5546L49.4685 18.863C49.5349 18.4662 49.4236 18.063 49.1638 17.7562C48.9041 17.4487 48.5245 17.2731 48.1227 17.2731C47.7945 17.2731 47.5097 17.4958 47.4305 17.8133C47.1094 19.0985 46.4437 20.2737 45.5067 21.2107L44.8674 21.85L44.8674 27.5787C46.0769 28.3044 47.4505 28.6904 48.867 28.6904L52.0032 28.6904ZM40.5858 28.6904L40.5858 21.5546L43.4402 21.5546L43.4409 28.6904L40.5858 28.6904Z" fill="rgb(255,255,255)" fill-rule="evenodd" />
	</g>
</svg>
