<svg viewBox="0 0 62.9102 63.1848" xmlns="http://www.w3.org/2000/svg" xmlns:xlink="http://www.w3.org/1999/xlink" width="62.910156" height="63.184814" fill="none" customFrame="#000000">
	<g id="Icon">
		<g id="Layer_3">
			<path id="Path 2359" d="M51.2024 60.4612L2.72363 60.4612L2.72363 11.9825L26.963 11.9825L26.963 9.25894L0.000110006 9.25894L0.000110006 63.1848L53.9259 63.1848L53.9259 32.9536L51.2024 32.9536L51.2024 60.4612Z" fill="rgb(0,180.5,78.2167)" fill-rule="evenodd" />
			<path id="Path 2360" d="M13.7078 49.1116L15.6141 37.2195L16.885 36.0394L52.9244 0L62.9101 9.89495L26.78 45.9343L25.5999 47.2052L13.7078 49.1116ZM55.4663 13.5261L59.0067 9.89494L53.106 3.90351L49.4748 7.4439L55.4663 13.5261ZM53.5599 15.4325L47.4777 9.35027L19.79 37.038L25.7814 43.1202L53.5599 15.4325ZM18.0652 39.1259L23.6027 44.7542L16.885 45.8436L18.0652 39.1259Z" fill="rgb(255,255,255)" fill-rule="evenodd" />
		</g>
	</g>
</svg>
