<svg viewBox="0 0 75.5076 20" xmlns="http://www.w3.org/2000/svg" xmlns:xlink="http://www.w3.org/1999/xlink" width="75.507568" height="20.000000" fill="none" customFrame="#000000">
	<g id="linkedin">
		<path id="Path 2348" d="M55.6368 1.43267C55.6368 0.64183 56.2945 -2e-05 57.1053 -2e-05L74.0366 -2e-05C74.8476 -2e-05 75.505 0.64183 75.505 1.43267L75.505 18.5675C75.505 19.3586 74.8476 20 74.0366 20L57.1053 20C56.2945 20 55.6368 19.3586 55.6368 18.5678L55.6368 1.4324L55.6368 1.43267Z" fill="rgb(0,119,178.5)" fill-rule="evenodd" />
		<path id="Path 2349" d="M12.6909 4.92832C12.6909 5.79549 12.0394 6.48902 10.9928 6.48902L10.9731 6.48902C9.96587 6.48902 9.31431 5.79549 9.31431 4.92832C9.31431 4.04253 9.98581 3.36841 11.0127 3.36841C12.0394 3.36841 12.6715 4.04226 12.6909 4.92832ZM8.29423 16.7529L0.000244141 16.7529L0.000244141 3.6412L3.00229 3.6412L3.00229 14.0297L8.29423 14.0297L8.29423 16.7529ZM24.2831 3.64121L27.2849 3.64121L27.2849 11.1499C27.5024 10.7449 29.9709 7.33285 29.9709 7.33285L33.5844 7.33285L30.1288 11.1467L34.078 16.7529L30.3853 16.7529L28.0351 12.8803L27.2849 13.8248L27.2849 16.7529L24.2831 16.7529L24.2831 3.64121ZM13.887 16.7529L16.8888 16.7529L16.8888 11.7093C16.8888 11.4394 16.9082 11.1695 16.9877 10.9773C17.2044 10.438 17.6983 9.87926 18.5277 9.87926C19.6141 9.87926 20.0488 10.7076 20.0488 11.921L20.0488 16.7526L23.05 16.7526L23.05 11.5745C23.05 8.80041 21.5691 7.50963 19.5939 7.50963C18.002 7.50963 17.2878 8.38464 16.8888 9.00016L16.8888 7.72184L13.887 7.72184C13.9267 8.56934 13.887 16.7529 13.887 16.7529ZM16.8888 9.00016L16.8888 9.03151L16.8686 9.03151C16.8753 9.02114 16.882 9.01068 16.8888 9.00016ZM12.4934 16.7529L12.4934 7.72183L9.49164 7.72183L9.49164 16.7529L12.4934 16.7529Z" fill="rgb(255,255,255)" fill-rule="evenodd" />
		<path id="Path 2350" d="M49.6132 8.18013L49.6132 3.64126L49.6129 3.64099L52.6147 3.64099L52.6147 13.9403C52.6147 15.0191 52.6546 16.1171 52.6939 16.7529L50.0282 16.7529L49.9093 15.3848L49.8503 15.3848C49.2575 16.4251 48.0729 16.9649 46.8286 16.9649C44.5382 16.9649 42.7013 15.0577 42.7013 12.1293C42.6819 8.97018 44.7158 7.12095 47.0266 7.12095C48.2306 7.12095 49.139 7.54483 49.5736 8.18013L49.6132 8.18013ZM42.204 11.8059C42.204 12.309 42.1447 12.7539 42.1051 12.9857L42.1051 12.9852L35.8846 12.9663C35.9835 14.1929 37.2076 14.7686 38.6096 14.7686C39.6363 14.7686 40.4657 14.6341 41.2757 14.3655L41.6707 16.3479C40.6829 16.7527 39.4786 16.9447 38.175 16.9447C34.897 16.9447 33.0208 15.0957 33.0208 12.1348C33.0208 9.74082 34.5613 7.10127 37.8988 7.10127C41.0189 7.10127 42.204 9.47143 42.204 11.8059ZM35.8649 10.955C35.9439 10.1844 36.4577 9.0473 37.7411 9.0473C39.1035 9.0473 39.4199 10.2612 39.4199 10.955L35.8649 10.955ZM49.6132 12.5726C49.6132 12.8035 49.5935 13.0351 49.5536 13.2271C49.3766 14.056 48.6655 14.6333 47.7965 14.6333C46.5526 14.6333 45.7427 13.6318 45.7427 12.0522C45.7427 10.5692 46.4344 9.37466 47.8164 9.37466C48.7445 9.37466 49.396 10.0102 49.5738 10.7998C49.6132 10.9737 49.6132 11.1665 49.6132 11.3396L49.6132 12.5726Z" fill="rgb(255,255,255)" fill-rule="evenodd" />
		<path id="Path 2351" d="M60.1577 6.47802C61.2043 6.47802 61.8559 5.78449 61.8559 4.91785C61.8362 4.03153 61.2043 3.35742 60.1777 3.35742C59.1502 3.35742 58.4792 4.03154 58.4792 4.91785C58.4792 5.78449 59.1306 6.47802 60.1381 6.47802L60.1577 6.47802ZM66.321 16.7419L63.3195 16.7419C63.3198 16.6888 63.3587 8.55557 63.3198 7.7111L66.3213 7.7111L66.3213 8.98959C66.3146 8.99997 66.3079 9.01028 66.3014 9.02051L66.3213 9.02051L66.3213 8.98959C66.7202 8.37432 67.4344 7.49916 69.0267 7.49916C71.0016 7.49916 72.4822 8.78995 72.4822 11.5638L72.4822 16.7419L69.4807 16.7419L69.4807 11.9111C69.4807 10.6969 69.0461 9.86879 67.9602 9.86879C67.1308 9.86879 66.6368 10.4272 66.4199 10.9668C66.3407 11.1593 66.321 11.4295 66.321 11.6991L66.321 16.7419ZM61.6581 7.71084L61.6581 16.7419L58.6563 16.7419L58.6563 7.71084L61.6581 7.71084Z" fill="rgb(24.4375,24.4375,24.4375)" fill-rule="evenodd" />
	</g>
</svg>
