<svg viewBox="0 0 83 38" xmlns="http://www.w3.org/2000/svg" xmlns:xlink="http://www.w3.org/1999/xlink" width="83.000000" height="38.000000" fill="none" customFrame="#000000">
	<path id="Logo" d="M45.8993 30.712C50.3473 30.712 53.1312 27.544 53.1312 22.136C53.1312 16.728 50.3473 13.56 45.8993 13.56C43.2433 13.56 41.4512 14.648 40.5233 16.696L40.5233 7.608L37.1312 7.608L37.1312 30.392L40.3633 30.392L40.3633 27.352C41.2593 29.464 43.0513 30.712 45.8993 30.712ZM45.1312 28.12C42.3792 28.12 40.5233 26.296 40.5233 22.136C40.5233 18.008 42.3792 16.152 45.1312 16.152C47.8512 16.152 49.7393 18.008 49.7393 22.136C49.7393 26.296 47.8512 28.12 45.1312 28.12Z" fill="rgb(45,202,114)" fill-rule="nonzero" />
	<path id="Logo" d="M17.184 30.392L17.184 27.48L5.472 27.48L16.864 10.072L16.864 7.608L1.44 7.608L1.44 10.52L12.48 10.52L1.12 27.928L1.12 30.392L17.184 30.392ZM26.8075 30.712C31.0955 30.712 33.4955 28.632 34.2315 25.272L31.1275 25.272C30.6155 27.16 29.1435 28.376 26.8075 28.376C23.9915 28.376 22.1355 26.68 22.0395 22.776L34.5195 22.776C34.5515 22.456 34.5835 22.168 34.5835 21.848C34.5835 17.112 31.8315 13.56 26.6155 13.56C21.3995 13.56 18.6475 17.048 18.6475 22.136C18.6475 27.384 21.5595 30.712 26.8075 30.712ZM26.6155 15.896C29.1755 15.896 30.8395 17.432 31.1915 20.536L22.0395 20.536C22.3915 17.432 24.0555 15.896 26.6155 15.896ZM59.0858 30.392L59.0858 22.552C59.0858 18.872 60.8457 16.792 63.5338 16.792L65.1657 16.856L65.1657 13.88C64.7497 13.784 64.1097 13.688 63.6618 13.688C61.2617 13.688 59.7897 14.776 58.9258 17.688L58.9258 13.88L55.6937 13.88L55.6937 30.392L59.0858 30.392ZM71.9112 30.712C74.7592 30.712 76.5833 29.656 77.4792 27.544C77.4792 29.08 77.6712 29.752 78.1833 30.392L81.2233 30.392C80.9033 29.848 80.7113 28.408 80.7113 26.168L80.7113 19C80.7113 15.672 78.6312 13.56 73.7992 13.56C68.9352 13.56 66.8873 15.672 66.8873 19L70.2152 19C70.3753 16.952 71.5912 15.992 73.8313 15.992C76.2312 15.992 77.3193 17.112 77.3193 19C77.3193 20.056 76.7432 20.504 74.7913 20.696L71.5912 20.952C67.4952 21.304 65.9912 23.256 65.9912 25.72C65.9912 28.792 68.0713 30.712 71.9112 30.712ZM72.8392 28.376C70.4072 28.376 69.3832 27.192 69.3832 25.496C69.3832 24.152 70.3112 23.16 72.6793 22.968L74.7913 22.776C76.0713 22.68 76.9673 22.424 77.3193 21.976L77.3193 23.384C77.3193 26.104 75.7513 28.376 72.8392 28.376Z" fill="rgb(255,255,255)" fill-rule="nonzero" />
</svg>
