<svg viewBox="0 0 141.958 20" xmlns="http://www.w3.org/2000/svg" xmlns:xlink="http://www.w3.org/1999/xlink" width="141.958252" height="20.000000" fill="none" customFrame="#000000">
	<g id="new-york-times">
		<path id="Path 2345" d="M76.1574 6.62991C76.7637 7.1996 77.3809 7.76081 77.9872 8.3322C77.9834 9.47023 77.9827 10.6079 77.9827 11.7457C77.9827 12.0705 77.9828 12.3954 77.9828 12.7203C77.9829 13.0462 77.9829 13.3721 77.9829 13.698C77.3615 13.1529 76.7713 12.5748 76.1575 12.0212L76.1574 6.62991ZM75.9177 6.41129C76.4678 6.0547 77.0274 5.71424 77.5945 5.38397C78.4367 6.08527 79.2735 6.79548 80.1139 7.50017C80.3288 7.32697 80.5452 7.15589 80.7593 6.98014C80.805 6.97844 80.8947 6.97462 80.9397 6.97377C80.7155 7.2081 80.4833 7.43648 80.2541 7.66572C80.2538 7.82518 80.2537 7.98464 80.2537 8.14408C80.2537 8.53733 80.2544 8.93051 80.255 9.32365C80.2556 9.71672 80.2563 10.1097 80.2563 10.5028C80.2563 11.2374 80.2541 11.9721 80.2455 12.7068C78.9754 13.3121 77.8106 14.1064 76.5778 14.7805C76.5411 14.7937 76.5026 14.8192 76.4633 14.8451C76.3708 14.9063 76.2739 14.9704 76.1851 14.8846C75.4185 14.247 74.6582 13.6017 73.8864 12.97C73.7183 13.1398 73.5485 13.3096 73.3855 13.4837C73.3388 13.487 73.2455 13.4938 73.1987 13.4964C73.422 13.2621 73.6542 13.0337 73.8843 12.8045C73.8841 12.6743 73.8841 12.544 73.8841 12.4138C73.8841 11.9623 73.8847 11.5107 73.8854 11.0591C73.886 10.6075 73.8867 10.1559 73.8867 9.70435C73.8867 8.9342 73.8848 8.16408 73.8779 7.39403C74.5655 7.08499 75.2716 6.80524 75.9177 6.41129ZM42.3854 6.68297C42.9798 7.65086 43.5244 8.65101 44.0729 9.64606C43.5066 10.0612 42.9594 10.5019 42.3981 10.9238C42.3885 10.4054 42.3859 9.88666 42.3859 9.36785C42.3859 9.07558 42.3867 8.78328 42.3875 8.49096C42.3883 8.19863 42.3892 7.90629 42.3892 7.61396C42.3892 7.3036 42.3882 6.99326 42.3854 6.68297ZM42.5383 6.37733C43.0672 6.0564 43.5877 5.72019 44.1047 5.37973C44.671 6.45883 45.2938 7.51289 45.8262 8.60813C44.6707 9.46055 43.5534 10.3652 42.4004 11.221C42.4008 11.23 42.401 11.2391 42.401 11.2483C42.401 11.2979 42.3954 11.3504 42.3898 11.4034C42.3841 11.4575 42.3783 11.5123 42.3783 11.5654C42.3783 11.6661 42.3992 11.7604 42.481 11.8323C43.0219 12.3732 43.5614 12.9148 44.1048 13.4539C44.7977 12.8953 45.4798 12.3222 46.1828 11.7771C46.2531 11.7079 46.3369 11.8033 46.3369 11.8853C46.3369 11.927 46.3153 11.9653 46.2592 11.9767C44.9618 12.9675 43.6765 13.9752 42.3663 14.9483C41.6659 14.2894 40.9604 13.6348 40.265 12.97C39.9891 13.1406 39.7233 13.3261 39.4542 13.507C39.4287 13.462 39.3757 13.3716 39.3502 13.3266C39.5931 13.1313 39.869 12.984 40.1186 12.7981C40.1162 12.2115 40.1155 11.6249 40.1155 11.0383C40.1155 10.6118 40.1159 10.1854 40.1163 9.75893C40.1166 9.33249 40.117 8.90605 40.117 8.47963C40.117 8.20054 40.1168 7.92145 40.1164 7.64237C40.9265 7.2255 41.7649 6.86127 42.5383 6.37733ZM22.3995 6.64901C23.0057 7.64491 23.6148 8.63742 24.2142 9.63757C23.6046 10.0663 23.0001 10.5002 22.3974 10.9366C22.3943 10.2026 22.392 9.4684 22.392 8.73422C22.392 8.03907 22.3941 7.34394 22.3995 6.64901ZM22.0896 6.71694C22.8079 6.2695 23.5168 5.80636 24.2503 5.38185C24.8209 6.44823 25.391 7.51375 25.9801 8.57002C24.8001 9.47083 23.6016 10.3483 22.4036 11.2253C22.4045 11.2386 22.405 11.2522 22.405 11.266C22.405 11.3132 22.4002 11.3633 22.3954 11.4139C22.3904 11.4658 22.3854 11.5184 22.3854 11.5693C22.3854 11.6789 22.4086 11.7807 22.5055 11.8515C23.0888 12.3804 23.6546 12.9276 24.2396 13.454C24.9477 12.8886 25.6431 12.3023 26.3579 11.7454L26.5171 11.8854C25.2326 12.8797 23.9357 13.8598 22.652 14.8549C22.6138 14.8745 22.5386 14.914 22.5013 14.9334C21.7432 14.2984 21.0262 13.6144 20.2663 12.9828C20.0404 13.1339 19.8371 13.3148 19.6316 13.4922C19.5858 13.4642 19.495 13.4089 19.4491 13.3818C19.6868 13.1491 19.9921 13.0032 20.2536 12.8002C20.2505 11.9993 20.2499 11.1984 20.2499 10.3976C20.2499 10.1498 20.2499 9.90213 20.25 9.6544C20.25 9.40668 20.2501 9.15895 20.2501 8.91123C20.2501 8.48827 20.2499 8.06532 20.2493 7.64237C20.8624 7.33418 21.4808 7.03447 22.0896 6.71694ZM138.898 9.79464C139.176 10.029 139.452 10.2675 139.73 10.5036C139.801 10.5459 139.813 10.6137 139.813 10.6863C139.813 10.706 139.812 10.726 139.811 10.7459C139.81 10.7657 139.809 10.7854 139.809 10.8047C139.809 10.8237 139.81 10.8424 139.813 10.8602C139.811 11.032 139.811 11.2039 139.811 11.3758C139.811 11.5661 139.812 11.7564 139.812 11.9467C139.813 12.1371 139.813 12.3275 139.813 12.5179C139.813 12.886 139.811 13.254 139.802 13.6216C139.594 13.1512 139.283 12.7136 138.843 12.435C138.205 12.0182 137.329 11.994 136.68 12.3989C136.383 12.5636 136.145 12.8094 135.92 13.059C136.242 12.4308 136.762 11.9349 137.251 11.4373C137.81 10.8992 138.368 10.3618 138.898 9.79464ZM137.987 6.59383C138.345 7.10749 138.818 7.60714 139.467 7.71242C140.113 7.86439 140.739 7.51417 141.163 7.04806C140.583 8.12037 139.683 8.98128 138.754 9.7522C138.502 9.48561 138.232 9.23727 137.983 8.96898C137.987 8.65684 137.988 8.34451 137.988 8.03214C137.988 7.8489 137.988 7.66564 137.988 7.4824C137.987 7.29919 137.987 7.116 137.987 6.93286C137.987 6.81983 137.987 6.70682 137.987 6.59383ZM141.59 5.25341C141.59 5.16393 141.57 5.07386 141.536 4.98917C141.726 5.16081 141.788 5.40365 141.788 5.65171C141.788 5.80859 141.763 5.96756 141.73 6.11193C141.497 6.99491 140.937 7.7412 140.38 8.44674C140.906 8.8271 141.414 9.23421 141.946 9.60778C141.956 10.0069 141.958 10.4065 141.958 10.8063C141.958 11.0471 141.957 11.2879 141.956 11.5287C141.955 11.7695 141.954 12.0103 141.954 12.2511C141.954 12.4412 141.955 12.6313 141.957 12.8213C140.751 13.4471 139.59 14.1564 138.488 14.9502C138.214 14.6064 137.86 14.2999 137.431 14.1776C137.018 14.0571 136.52 14.3377 136.419 14.7571C136.418 14.7719 136.417 14.7866 136.417 14.801C136.417 15.2178 136.847 15.4678 137.198 15.5934C136.906 15.7072 136.6 15.5756 136.349 15.4278C135.8 15.0992 135.524 14.4391 135.524 13.8156C135.524 13.7933 135.525 13.7711 135.525 13.749C135.546 13.1834 135.876 12.6969 136.226 12.2758C136.566 11.8759 136.922 11.4884 137.283 11.1064C136.812 10.6955 136.319 10.3134 135.839 9.91351C135.84 9.61489 135.841 9.31649 135.841 9.01815C135.841 8.88181 135.841 8.74548 135.841 8.60915C135.841 8.47282 135.841 8.33649 135.841 8.20014C135.841 7.928 135.841 7.6558 135.842 7.38342C136.499 7.10918 137.153 6.81457 137.746 6.41553C138.259 6.07083 138.776 5.72867 139.291 5.38397C139.597 5.69301 139.952 6.02031 140.407 6.06106C140.842 6.0687 141.353 5.904 141.541 5.47524C141.576 5.4041 141.59 5.32896 141.59 5.25341ZM47.0453 3.92365C47.3892 3.68762 47.8239 3.70206 48.2213 3.65111C47.9216 3.88799 47.5888 4.16307 47.5479 4.57145C47.54 4.61476 47.5362 4.65756 47.5362 4.69972C47.5362 5.01295 47.7438 5.29108 47.981 5.48415C48.4709 5.8764 49.1 6.09545 49.4991 6.59807C49.6844 6.83258 49.7992 7.12728 49.7992 7.42787C49.7992 7.43851 49.7991 7.44917 49.7988 7.45983C49.7981 7.90226 49.7979 8.34463 49.7979 8.78695C49.7979 9.07642 49.798 9.36587 49.7981 9.65531C49.7981 9.94472 49.7982 10.2341 49.7982 10.5235C49.7982 11.1488 49.7978 11.7741 49.7962 12.3994C50.2342 12.7535 50.6741 13.1033 51.1113 13.4573C51.2386 13.375 51.366 13.2927 51.4943 13.2103C51.4932 12.8821 51.4928 12.5538 51.4928 12.2256C51.4928 11.8412 51.4933 11.4568 51.4939 11.0724C51.4944 10.688 51.4949 10.3036 51.4949 9.91924C51.4949 9.21871 51.4932 8.51829 51.4865 7.81812C51.2616 7.55238 50.95 7.36219 50.6927 7.12532C51.3244 6.54374 51.9433 5.94688 52.5877 5.37973C53.1481 5.9299 53.7373 6.45035 54.3121 6.98523C54.0939 7.21607 53.8694 7.44086 53.6388 7.65936C53.6372 8.25999 53.6368 8.86063 53.6368 9.46126C53.6368 9.73785 53.6369 10.0144 53.637 10.291C53.6371 10.5676 53.6372 10.8442 53.6372 11.1208C53.6372 11.547 53.637 11.9732 53.6363 12.3995C54.2102 12.8443 54.7842 13.2901 55.364 13.7282C55.4456 13.6805 55.528 13.6339 55.612 13.5872C55.609 12.9007 55.6082 12.2143 55.6082 11.5278C55.6082 11.1757 55.6084 10.8236 55.6086 10.4716C55.6088 10.1195 55.609 9.76736 55.609 9.41525C55.609 8.8764 55.6085 8.33753 55.6069 7.79861C55.3411 7.57192 55.066 7.35542 54.8037 7.12449C55.4235 6.53866 56.0509 5.96303 56.6741 5.38145C57.2947 5.86709 57.9162 6.35273 58.5334 6.84262C58.7474 6.60659 58.9664 6.37226 59.2109 6.16595C59.2423 6.21095 59.3068 6.30179 59.3382 6.34679C58.8101 6.81715 58.2854 7.29345 57.7735 7.78164C57.757 8.3538 57.7527 8.92667 57.7527 9.49977C57.7527 9.81858 57.754 10.1375 57.7554 10.4563C57.7567 10.7752 57.7581 11.094 57.7581 11.4127C57.7581 11.7429 57.7566 12.073 57.7522 12.4029C56.4082 13.2858 55.0048 14.0917 53.6413 14.9508C52.9221 14.4354 52.2234 13.8921 51.5136 13.3648C50.8768 13.8768 50.2392 14.3896 49.5982 14.8965C49.5308 14.9713 49.4621 14.911 49.4004 14.8569C49.3781 14.8373 49.3567 14.8186 49.3366 14.8073C48.7372 14.3259 48.1412 13.8402 47.5342 13.3699C47.2795 13.5923 47.0121 13.8003 46.7566 14.0227C46.7158 13.9837 46.636 13.9064 46.5952 13.8682C46.9068 13.6526 47.2116 13.4259 47.5232 13.2102C47.5241 12.4644 47.5246 11.7187 47.5246 10.973C47.5246 10.2274 47.5241 9.48173 47.5232 8.73587C47.5224 8.33683 47.3823 7.93269 47.1097 7.63723C46.81 7.31206 46.4068 7.08367 46.1682 6.70246C45.9962 6.41374 45.9261 6.07999 45.9261 5.74554C45.9261 5.56659 45.9462 5.38744 45.9814 5.21489C46.1292 4.65555 46.5733 4.22934 47.0453 3.92365ZM110.544 3.40744C111.094 2.9252 111.612 2.40729 112.174 1.93863C112.649 2.4404 113.15 2.91755 113.633 3.41168C113.053 3.95421 112.47 4.49249 111.883 5.02652C111.439 4.48399 110.982 3.9542 110.544 3.40744ZM68.7455 8.72275C69.0817 8.73124 69.3398 8.98213 69.5138 9.24702C69.5132 9.62965 69.5129 10.0124 69.5129 10.3951C69.5129 10.8084 69.5132 11.2217 69.5135 11.635C69.5137 12.0483 69.514 12.4616 69.514 12.8748C69.514 13.0523 69.514 13.2298 69.5138 13.4072C69.515 13.4257 69.5156 13.444 69.5156 13.4622C69.5156 13.8639 69.2343 14.207 68.9281 14.4409C68.6191 14.6863 68.1996 14.6948 67.8244 14.6744C67.8165 14.0037 67.8143 13.3327 67.8143 12.6616C67.8143 12.2494 67.8152 11.8372 67.816 11.425C67.8168 11.0128 67.8176 10.6007 67.8176 10.1887C67.8176 9.87192 67.8171 9.55517 67.8158 9.23852C68.0586 8.97447 68.366 8.71765 68.7455 8.72275ZM67.8158 7.43011C68.3372 7.69501 69.0079 7.77524 69.5138 7.43223C69.513 7.68057 69.5126 7.92944 69.5126 8.17831C69.5126 8.42718 69.513 8.67605 69.5138 8.92439C69.3084 8.72402 69.0444 8.56483 68.7497 8.56568C68.4034 8.55804 68.085 8.72148 67.8158 8.92439C67.8162 8.79424 67.8164 8.66404 67.8164 8.53379C67.8164 8.38745 67.8162 8.24106 67.816 8.09463C67.8158 7.94814 67.8156 7.80162 67.8156 7.65508C67.8156 7.58009 67.8157 7.5051 67.8158 7.43011ZM68.4504 2.90482C68.807 3.21047 69.1581 3.52206 69.5138 3.83026C69.5139 3.957 69.514 4.08375 69.514 4.2105C69.514 4.53969 69.5137 4.86889 69.5134 5.19808C69.5131 5.52727 69.5129 5.85646 69.5129 6.18566C69.5129 6.49576 69.5131 6.80587 69.5138 7.11598C69.3449 7.28239 69.1602 7.45814 68.9132 7.48955C68.5107 7.57445 68.1189 7.37536 67.8158 7.12659C67.8165 6.58669 67.8168 6.04686 67.8168 5.50705C67.8168 4.77239 67.8163 4.03775 67.8158 3.30297L67.8158 3.29113C68.0281 3.16378 68.24 3.03642 68.4504 2.90482ZM67.818 3.11496C68.6084 2.45951 69.3887 1.79346 70.1868 1.14735C70.8057 1.67628 71.4182 2.21032 72.0441 2.73094C72.3607 2.5085 72.6035 2.14554 72.9907 2.0496C72.7138 2.36884 72.3637 2.61633 72.0462 2.89226C72.0414 4.20738 72.0401 5.52247 72.0401 6.83755C72.0401 7.53043 72.0405 8.2233 72.0408 8.91617C72.0412 9.60905 72.0415 10.3019 72.0415 10.9948C72.0415 11.7714 72.0411 12.548 72.0397 13.3246C72.0262 13.8823 71.8042 14.4746 71.3118 14.7786C70.8338 15.1318 70.2153 15.2437 69.6328 15.1775C68.6072 15.0722 67.6457 14.6542 66.6209 14.5471C65.7371 14.3611 64.7619 14.213 63.9147 14.6129C63.5706 14.7927 63.2301 15.1364 63.2301 15.5404C63.2301 15.596 63.2365 15.6527 63.2503 15.7103C63.3514 16.2044 63.8222 16.5614 64.3264 16.5275C65.8131 16.4876 67.2479 16.0202 68.7201 15.8504C69.5038 15.7655 70.3638 15.6724 71.0762 16.0901C71.617 16.3678 72.1374 16.8479 72.1756 17.4931C72.1776 17.5326 72.1786 17.5722 72.1786 17.6119C72.1786 18.2282 71.9436 18.8654 71.4666 19.2697C71.0166 19.6612 70.4427 19.8777 69.8662 20C70.1693 19.7758 70.4902 19.5169 70.5879 19.134C70.6085 19.0657 70.6184 18.9943 70.6184 18.9229C70.6184 18.5511 70.3507 18.1757 69.9405 18.2064C68.2985 18.2607 66.7418 18.9111 65.1032 19.0087C64.5259 19.0282 63.9256 19.0205 63.3924 18.7709C62.6869 18.4075 62.1613 17.6804 62.0892 16.884C62.0851 16.789 62.0821 16.6927 62.0821 16.5961C62.0821 16.2306 62.1246 15.8607 62.3099 15.5404C62.6317 14.9724 63.2184 14.6068 63.8212 14.3963C63.8217 14.1743 63.8223 13.9522 63.8229 13.7301C63.8248 12.998 63.8267 12.266 63.8267 11.534C63.8267 10.7208 63.8244 9.90755 63.8169 9.0942C63.4137 8.98297 62.8712 9.03901 62.6325 9.42107C62.5962 9.49899 62.5801 9.57531 62.5801 9.64908C62.5801 9.93547 62.8224 10.1835 63.0613 10.338C62.5248 10.2498 61.9475 9.96359 61.7751 9.40833C61.6793 9.20334 61.6342 8.98295 61.6342 8.7625C61.6342 8.37942 61.7703 7.99617 62.0128 7.69331C62.3924 7.08371 63.1685 6.97759 63.8256 6.9674C63.8254 6.80779 63.8254 6.64821 63.8254 6.48864C63.8254 6.19709 63.8256 5.90561 63.8258 5.61416C63.826 5.32279 63.8262 5.03146 63.8262 4.74015C63.8262 4.48637 63.826 4.2326 63.8256 3.97884C63.8179 3.64687 63.7988 3.2924 63.607 3.00883C63.3828 2.65733 62.884 2.5287 62.5096 2.68832C62.1683 2.89463 62.0473 3.31278 61.9938 3.6838C61.9713 3.57595 61.9606 3.46661 61.9606 3.35738C61.9606 2.8604 62.1837 2.36571 62.5436 2.02396C63.0207 1.56124 63.6473 1.2021 64.3308 1.22163C64.9072 1.26154 65.5045 1.47167 65.8866 1.9242C66.1931 2.27994 66.3443 2.7486 66.3535 3.21471C66.3538 3.67719 66.3538 4.13965 66.3538 4.60209C66.3538 5.5382 66.3535 6.47424 66.3531 7.41023C66.3528 8.34614 66.3524 9.282 66.3524 10.2179C66.3524 11.5682 66.3532 12.9185 66.3557 14.269C66.7827 14.3658 67.2149 14.4519 67.6462 14.5343C67.6471 13.4018 67.6473 12.2693 67.6473 11.1368C67.6473 10.181 67.6471 9.22529 67.6469 8.26953C67.6467 7.31377 67.6465 6.35801 67.6465 5.40225C67.6465 4.07736 67.6469 2.75246 67.6482 1.42753C67.6462 1.41362 67.6452 1.40058 67.6452 1.38842C67.6452 1.29888 67.6998 1.25674 67.8074 1.26197C67.8158 1.50527 67.8179 1.74837 67.8179 1.99143C67.8179 2.11498 67.8173 2.23851 67.8168 2.36206C67.8162 2.48562 67.8157 2.6092 67.8157 2.7328C67.8157 2.86015 67.8163 2.98753 67.818 3.11496ZM11.7107 2.72313C12.5877 2.06938 13.4478 1.39186 14.3257 0.740656C14.3271 1.45999 14.3275 2.17942 14.3275 2.89892C14.3275 3.31007 14.3273 3.72125 14.3272 4.13244C14.3271 4.54366 14.327 4.95489 14.327 5.36613C14.327 5.98307 14.3273 6.60004 14.3282 7.217C15.0711 6.60401 15.8199 5.99865 16.5551 5.37717C17.1452 5.98932 17.6962 6.63967 18.3041 7.23228C18.5606 7.04804 18.8237 6.87314 19.0929 6.70843C19.0446 7.05059 18.6352 7.16775 18.423 7.40633C18.4239 7.82547 18.4241 8.24451 18.4241 8.66352C18.4241 8.95204 18.424 9.24054 18.4239 9.52905C18.4238 9.81758 18.4237 10.1061 18.4237 10.3947C18.4237 10.5784 18.4237 10.7621 18.4238 10.9459C18.4249 11.0007 18.4254 11.0555 18.4254 11.1102C18.4254 11.5737 18.3897 12.0357 18.354 12.4978C18.326 12.86 18.298 13.2223 18.2872 13.5855C18.2472 14.5415 17.8763 15.5188 17.1309 16.1462C16.5246 16.6879 15.696 16.8831 14.9056 16.9485C14.892 16.9672 14.8631 17.0054 14.8487 17.0248L14.8699 16.9553C14.5974 16.9553 14.3257 16.9451 14.054 16.9247C14.3954 16.7481 14.7816 16.6352 15.0507 16.3431C15.3598 15.9983 15.7198 15.6699 15.8717 15.219C16.1205 14.5313 16.1281 13.7901 16.1528 13.0685C16.1513 12.7192 16.1508 12.3699 16.1508 12.0206C16.1508 11.6959 16.1512 11.3712 16.1516 11.0465C16.1521 10.7218 16.1525 10.3971 16.1525 10.0725C16.1525 9.45361 16.151 8.83482 16.1451 8.21629C15.7851 7.74678 15.3538 7.33246 14.9718 6.87908C14.7629 7.10237 14.5125 7.29001 14.3333 7.53792C14.3277 8.18532 14.3262 8.83286 14.3262 9.48042C14.3262 9.8604 14.3267 10.2404 14.3272 10.6204C14.3278 11.0003 14.3283 11.3803 14.3283 11.7602C14.3283 12.0222 14.328 12.2842 14.3274 12.5462C14.544 12.762 14.7595 12.9793 14.9777 13.1933C15.1527 13.0175 15.3275 12.8409 15.5024 12.6643C15.5416 12.7025 15.6187 12.7789 15.6578 12.8171C14.8088 13.4811 13.9683 14.1553 13.1193 14.8183C12.5819 14.3411 12.0572 13.8504 11.5282 13.3639C11.3508 13.4964 11.1733 13.6305 10.995 13.762C10.9569 13.7221 10.8821 13.6423 10.844 13.6024C11.2515 13.3401 11.6514 13.0659 12.0547 12.7984C12.0543 11.3143 12.0541 9.83041 12.0541 8.34653C12.0541 6.86265 12.0543 5.37877 12.0547 3.89468C12.0536 3.86464 12.0528 3.83429 12.052 3.80376C12.0468 3.60393 12.0414 3.39669 11.9375 3.22141C11.8585 3.06689 11.6803 3.01765 11.5469 2.92425C11.5441 2.915 11.5428 2.90626 11.5428 2.89795C11.5428 2.84572 11.5939 2.81082 11.6427 2.7775C11.6687 2.75972 11.6941 2.74239 11.7107 2.72313ZM87.7856 2.60767C88.8045 1.94373 89.8215 1.27386 90.8438 0.615006C90.8458 1.54631 90.8465 2.47765 90.8465 3.40903C90.8465 4.17348 90.846 4.93795 90.8456 5.70242C90.8452 6.4669 90.8448 7.23139 90.8448 7.99587C90.8448 9.45331 90.8463 10.9107 90.8523 12.368C91.0732 12.6686 91.3745 12.9156 91.642 13.1798C91.81 12.9998 91.9849 12.8274 92.1582 12.6534C92.1989 12.694 92.2804 12.7756 92.3221 12.8155C91.5061 13.5227 90.7157 14.2571 89.8947 14.9568C89.3776 14.4261 88.8427 13.9142 88.3299 13.3809C88.0998 13.5855 87.8893 13.8098 87.6728 14.028C87.6286 13.994 87.5403 13.9251 87.4962 13.8913C87.8875 13.5168 88.307 13.1738 88.7027 12.8028C88.7018 12.0418 88.7015 11.2808 88.7015 10.5198C88.7015 9.97489 88.7017 9.42995 88.7018 8.88501C88.7019 8.3401 88.7021 7.7952 88.7021 7.25032C88.7021 6.13231 88.7015 5.01438 88.6993 3.89657C88.6898 3.34122 88.407 2.67644 87.7856 2.60767ZM40.3915 0.599726C40.56 0.894885 40.6373 1.22497 40.6373 1.55757C40.6373 2.22378 40.3273 2.90008 39.8193 3.32594C39.3515 3.63074 38.8132 3.79885 38.2859 3.9695C38.2905 5.35498 38.2918 6.74059 38.2918 8.12622C38.2918 9.10528 38.2912 10.0844 38.2905 11.0634C38.2898 12.0424 38.2892 13.0214 38.2892 14.0004C38.2892 14.2824 38.2892 14.5643 38.2893 14.8463C38.2932 14.8635 38.2951 14.8804 38.2951 14.8966C38.2951 15.0368 38.1585 15.1348 38.0186 15.0756C37.7103 15.0611 37.6288 14.736 37.498 14.5169C35.6013 11.0291 33.7251 7.52945 31.813 4.04931C31.7994 5.00589 31.7958 5.96283 31.7958 6.9199C31.7958 7.44373 31.7969 7.9676 31.7979 8.49147C31.799 9.01535 31.8001 9.53922 31.8001 10.0631C31.8001 10.6194 31.7989 11.1758 31.7952 11.732C32.6985 11.9028 33.5781 12.3383 34.169 13.0566C34.4433 12.8443 34.6207 12.4708 34.9722 12.385C34.8831 12.5472 34.7532 12.6804 34.6292 12.8163C33.9457 13.5728 33.264 14.3327 32.5814 15.0908C32.2648 14.6918 31.8428 14.3131 31.3146 14.2588C30.9674 14.2452 30.5659 14.263 30.3128 14.5373C30.106 14.7218 29.9476 14.9961 29.9476 15.2726C29.9476 15.3854 29.974 15.4986 30.0343 15.6062C30.278 16.1385 30.891 16.2829 31.4072 16.4102C30.7619 16.5376 30.0395 16.4629 29.519 16.0307C29.1047 15.6767 28.7285 15.2274 28.6208 14.6791C28.5921 14.5299 28.5779 14.3775 28.5779 14.2249C28.5779 13.6038 28.8128 12.9779 29.266 12.5479C29.8834 11.9375 30.7883 11.7099 31.6356 11.7583C31.6462 11.2448 31.6497 10.7313 31.6497 10.2178C31.6497 9.69532 31.6461 9.1728 31.6424 8.65027C31.6418 8.57068 31.6413 8.49109 31.6407 8.4115C31.229 8.34613 30.6678 8.40471 30.4759 8.83516C30.4578 8.89185 30.4496 8.94708 30.4496 9.00065C30.4496 9.27684 30.6683 9.5089 30.8851 9.6689C30.5642 9.61287 30.2076 9.55174 29.9758 9.30297C29.7024 8.96591 29.4902 8.56772 29.4112 8.13811C29.3978 8.044 29.3908 7.94765 29.3908 7.8508C29.3908 7.37882 29.5558 6.89485 29.9376 6.59968C30.419 6.22696 31.06 6.17602 31.6475 6.1896L31.6475 3.83102C31.4344 3.51094 31.2298 3.14416 30.864 2.9786C30.6245 2.87926 30.3121 2.84361 30.1058 3.03039C29.8205 3.27236 29.7517 3.65697 29.6388 3.99403C29.6125 3.79655 29.5973 3.59272 29.5973 3.38803C29.5973 2.73997 29.75 2.08336 30.1882 1.59299C30.8844 0.691326 32.3574 0.658216 33.119 1.49196C33.4484 1.83072 33.6742 2.24844 33.8985 2.66022C35.3078 5.16993 36.6892 7.69577 38.113 10.197C38.1175 9.10358 38.1208 8.00972 38.1208 6.91587C38.1208 5.93473 38.1181 4.95359 38.1113 3.97281C37.8667 3.87772 37.5943 3.88027 37.3454 3.79367C36.8818 3.67141 36.4955 3.37255 36.1525 3.04908C35.9386 3.30039 35.7228 3.55085 35.5234 3.8132C35.4767 3.78773 35.3842 3.73764 35.3376 3.71217C36.0677 2.79183 36.8504 1.91309 37.6104 1.01652C38.0086 1.43594 38.5283 1.77894 39.1208 1.81715C39.7395 1.74592 40.3482 1.25094 40.3915 0.599726ZM103.535 5.69386C103.538 6.343 103.539 6.99209 103.539 7.64116C103.539 8.04538 103.539 8.4496 103.538 8.85382C103.538 9.25805 103.538 9.66228 103.538 10.0665C103.538 10.4053 103.538 10.7442 103.539 11.083C103.232 11.2112 102.93 11.3466 102.624 11.4757C102.181 10.8525 101.836 10.1516 101.658 9.40621C101.588 9.05862 101.55 8.70065 101.55 8.34309C101.55 7.69628 101.676 7.05084 101.968 6.47071C102.494 6.2194 103.013 5.9562 103.535 5.69386ZM107.799 0.00117636C108.042 0.00865636 108.292 0.106796 108.533 0.126326C109.07 0.206986 109.589 0.488006 109.919 0.924406C110.127 1.27509 110.233 1.68723 110.233 2.09911C110.233 2.51588 110.125 2.9324 109.906 3.28469C109.489 3.96645 108.703 4.31498 107.926 4.36507C107.933 4.67902 107.934 4.9931 107.934 5.30721C107.934 5.47955 107.934 5.65189 107.933 5.82423C107.933 5.99656 107.932 6.16889 107.932 6.34119C107.932 6.51313 107.933 6.68506 107.934 6.85695C108.329 7.21694 108.751 7.54975 109.123 7.93521C108.72 8.22303 108.344 8.54565 107.943 8.83517C107.935 9.30143 107.932 9.7677 107.932 10.234C107.932 10.4708 107.933 10.7077 107.934 10.9446C107.934 11.1814 107.935 11.4183 107.935 11.6551C107.935 11.8995 107.934 12.1439 107.932 12.3883C108.64 11.8662 109.222 11.1831 109.671 10.4292C109.809 10.2017 109.905 9.94823 110.068 9.73513C110.05 10.5824 109.909 11.431 109.558 12.2079C109.231 13.1232 108.507 13.8287 107.727 14.3729C106.544 15.0912 105.094 15.2856 103.742 15.0606C103.178 14.8901 102.637 14.6434 102.134 14.3369C101.082 13.69 100.273 12.6762 99.8137 11.5351C99.5576 10.8402 99.4358 10.0978 99.4358 9.35626C99.4358 9.06044 99.4551 8.76476 99.4931 8.4723C99.8438 6.45163 101.433 4.80707 103.297 4.05314C103.54 3.92918 103.816 3.9381 104.082 3.91942C103.816 3.98055 103.619 4.16649 103.424 4.34393C102.775 4.78287 102.292 5.43917 101.989 6.15659C103.312 5.60728 104.62 5.01975 105.937 4.45855C105.936 4.768 105.936 5.07748 105.936 5.38698C105.936 5.80211 105.936 6.21726 105.937 6.63243C105.938 7.04762 105.939 7.46281 105.939 7.87799C105.939 8.60892 105.936 9.33982 105.927 10.0706C105.145 10.4391 104.379 10.839 103.602 11.221C103.327 11.3653 103.034 11.4799 102.779 11.6583C103.403 12.3273 104.225 12.8926 105.165 12.9487C106.015 13.0668 106.938 12.9372 107.64 12.4118C107.636 11.9112 107.635 11.4104 107.635 10.9097C107.635 10.7657 107.635 10.6218 107.636 10.4778C107.636 10.3339 107.636 10.19 107.636 10.046C107.636 9.64586 107.635 9.24578 107.633 8.84587C107.229 8.54447 106.837 8.22864 106.438 7.92044C106.834 7.56045 107.235 7.20683 107.635 6.85279C107.635 6.71729 107.635 6.58181 107.635 6.44635C107.635 6.27497 107.635 6.10362 107.635 5.9323C107.636 5.76102 107.636 5.58976 107.636 5.41852C107.636 5.06169 107.635 4.70493 107.629 4.34817C106.884 4.21063 106.173 3.93427 105.432 3.7772C104.339 3.51825 103.26 3.20793 102.155 3.00247C101.854 2.91502 101.498 2.91247 101.238 3.1086C100.978 3.31916 100.844 3.64815 100.794 3.97248C100.784 4.0122 100.779 4.0505 100.779 4.08757C100.779 4.29194 100.928 4.45854 101.068 4.61544C101.111 4.66426 101.154 4.71215 101.191 4.75995C100.645 4.69797 100.257 4.22464 100.066 3.74325C99.9809 3.47727 99.9351 3.19463 99.9351 2.91301C99.9351 2.43051 100.07 1.95098 100.37 1.56338C100.738 1.00642 101.372 0.707566 101.996 0.531816C102.571 0.380686 103.169 0.495306 103.738 0.616716C104.847 0.876516 105.905 1.30697 106.992 1.63979C107.445 1.76289 107.95 1.85798 108.395 1.65252C108.619 1.55673 108.809 1.33508 108.809 1.08493C108.809 1.05792 108.807 1.03057 108.803 1.00302C108.714 0.741516 108.546 0.488506 108.291 0.366246C108.005 0.222766 107.682 0.192626 107.376 0.122156C107.511 0.0253739 107.653 -0.00322814 107.799 0.00117636ZM107.799 0.00117636L107.799 0.00116636L107.799 0.00117636ZM4.09452 5.69598C4.09413 5.90571 4.09397 6.11544 4.09397 6.32517C4.09397 6.7629 4.09466 7.20063 4.09536 7.63837C4.09606 8.0761 4.09675 8.51384 4.09675 8.95158C4.09675 9.66633 4.0949 10.3811 4.08815 11.0958C3.7876 11.2139 3.49205 11.3429 3.19668 11.4736C2.65161 10.6849 2.31285 9.75643 2.15663 8.81402C2.15181 8.72358 2.14944 8.63301 2.14944 8.54241C2.14944 7.83605 2.29338 7.12792 2.53869 6.46647C3.06169 6.21771 3.57322 5.94899 4.09452 5.69598ZM7.93423 0.122156C8.06005 0.0417464 8.19054 0.00761636 8.32486 0.00116636L8.32488 0.00118636C8.50028 -0.00718655 8.68095 0.030222 8.8604 0.0673781C8.98314 0.0927929 9.10532 0.11809 9.22484 0.128536C9.75632 0.224476 10.2089 0.569606 10.5578 0.966946C10.7532 1.25544 10.8245 1.58973 10.8245 1.93065C10.8245 2.25192 10.7612 2.57908 10.6788 2.87937C10.4351 3.82772 9.39464 4.30487 8.49043 4.35242C8.49008 4.52413 8.48995 4.69596 8.48995 4.86785C8.48995 5.10755 8.4902 5.34738 8.49046 5.58726C8.49071 5.8272 8.49096 6.06718 8.49096 6.3071C8.49096 6.48622 8.49082 6.6653 8.49043 6.8443C8.89117 7.20089 9.29021 7.5562 9.6918 7.91194C9.3004 8.23627 8.89465 8.54404 8.49043 8.85223C8.48949 9.11909 8.48917 9.38592 8.48917 9.65275C8.48917 9.9377 8.48954 10.2226 8.4899 10.5076C8.49027 10.7925 8.49063 11.0775 8.49063 11.3624C8.49063 11.7065 8.4901 12.0506 8.48839 12.3948C9.41806 11.7214 10.099 10.7676 10.6109 9.7522C10.613 9.81329 10.614 9.87441 10.614 9.93554C10.614 10.532 10.5164 11.1286 10.3223 11.6922C10.0913 12.3231 9.8565 12.9751 9.39047 13.4752C8.32316 14.6656 6.65916 15.2623 5.07743 15.1307C4.31331 15.1213 3.59589 14.7984 2.92932 14.4536C1.74239 13.8263 0.847094 12.7276 0.363154 11.4863C0.134508 10.8332 -6.73253e-10 10.1348 0 9.43907C4.76575e-10 8.9464 0.0674524 8.45504 0.216694 7.98198C0.754894 6.18545 2.18507 4.71282 3.92047 4.02766C4.0992 3.94431 4.29553 3.93812 4.48968 3.932C4.54077 3.93039 4.59171 3.92878 4.64214 3.92578C3.71492 4.39614 2.93773 5.18786 2.55567 6.16508C3.8776 5.60049 5.19019 5.01466 6.51636 4.45855C6.51475 4.75478 6.51416 5.051 6.51416 5.34723C6.51416 5.75263 6.51526 6.15802 6.51637 6.5634C6.51748 6.96876 6.51859 7.3741 6.51859 7.77941C6.51859 8.54184 6.51467 9.3042 6.49946 10.0664C5.43819 10.5741 4.38073 11.0962 3.34314 11.6498C3.96208 12.3332 4.80091 12.8962 5.74596 12.9488C6.63565 13.0532 7.61508 12.9615 8.34609 12.3969C8.34019 12.0674 8.33849 11.7379 8.33849 11.4084C8.33849 11.1843 8.33928 10.9603 8.34007 10.7362C8.34085 10.5122 8.34164 10.2881 8.34164 10.064C8.34164 9.65658 8.33904 9.24913 8.32911 8.84164C7.88244 8.53854 7.4367 8.23544 7.00455 7.91196C7.44859 7.56301 7.88074 7.1992 8.33327 6.86129C8.33964 6.44229 8.34282 6.02351 8.34282 5.60473C8.34282 5.18595 8.33964 4.76717 8.33327 4.34818C7.63197 4.22082 6.95403 3.99795 6.26802 3.81117C5.04288 3.56241 3.84576 3.19266 2.61722 2.96427C2.29375 2.91418 1.90447 2.95153 1.68542 3.22322C1.50802 3.41657 1.42679 3.66929 1.42679 3.92542C1.42679 4.22825 1.54034 4.53584 1.74273 4.75571C1.1119 4.66911 0.675854 4.05781 0.556224 3.46944C0.537569 3.33985 0.528135 3.20783 0.528135 3.07531C0.528135 2.44724 0.740028 1.80762 1.18662 1.35962C1.77245 0.768696 2.60237 0.360316 3.45139 0.472386C5.03651 0.656616 6.49556 1.36471 8.03832 1.72894C8.4933 1.84696 9.0253 1.73106 9.33511 1.36174C9.42951 1.2737 9.48646 1.14763 9.48646 1.02329C9.48646 0.93178 9.45561 0.841206 9.38614 0.767416C9.05918 0.295356 8.45222 0.225736 7.93423 0.122156Z" fill="rgb(255,255,255)" fill-rule="evenodd" />
		<path id="Path 2346" d="M132.943 5.38184C132.403 5.7104 131.861 6.03855 131.327 6.3773C130.59 6.89012 129.744 7.20935 128.961 7.64235C128.966 8.62565 128.965 9.60938 128.964 10.5929L128.964 10.5949C128.964 11.3295 128.963 12.064 128.965 12.798C128.695 12.9763 128.428 13.1579 128.158 13.3329C128.193 13.3754 128.264 13.4624 128.298 13.5049C128.531 13.3325 128.741 13.1279 128.993 12.9784C129.693 13.6296 130.426 14.2456 131.136 14.8866C131.192 14.9754 131.268 14.9174 131.332 14.8691C131.346 14.8583 131.359 14.848 131.372 14.8399C132.652 13.8534 133.936 12.8727 135.218 11.8896C135.099 11.6805 134.966 11.7985 134.842 11.91C134.809 11.9388 134.778 11.9672 134.747 11.9893C134.145 12.4793 133.544 12.9687 132.941 13.456C132.323 12.8931 131.727 12.3094 131.098 11.76C131.089 11.5833 131.088 11.4062 131.096 11.2294C132.297 10.3591 133.485 9.46851 134.677 8.58476C134.103 7.51415 133.527 6.44565 132.943 5.38184ZM93.6143 5.3899C92.7176 6.71862 91.8245 8.04903 90.95 9.39134C92.1191 11.2346 93.2493 13.1024 94.4047 14.954C95.3038 14.1967 96.2089 13.4462 97.0858 12.6642C97.0373 12.6338 96.9415 12.5725 96.8932 12.5421C96.646 12.7653 96.4006 12.9946 96.1206 13.1763C94.9012 11.2914 93.682 9.40491 92.4408 7.53537C92.4723 7.40462 92.5156 7.27642 92.5682 7.15247C92.8662 7.38765 93.1991 7.57953 93.5589 7.70179C94.1695 7.91913 94.9049 7.81216 95.3896 7.36727C95.9455 6.86381 96.1868 6.11157 96.281 5.38736C95.9073 5.68197 95.4846 5.97657 94.9889 5.97572C94.4821 5.92402 94.0026 5.71975 93.6143 5.3899ZM83.3954 5.52319C83.8811 5.96553 84.2894 6.48683 84.7404 6.96483C85.2312 6.49447 85.7107 6.01052 86.1846 5.52233C86.2357 5.55508 86.2871 5.5898 86.3391 5.62488C86.6376 5.82626 86.954 6.03975 87.3308 5.96383C87.6423 5.94261 87.8044 5.63696 88.0695 5.51215C88.0702 6.16165 87.9209 6.84427 87.4911 7.34858C86.9987 7.93781 86.0673 8.11016 85.4086 7.70602C85.1556 7.58291 84.9872 7.34688 84.7515 7.2017C84.7565 8.76847 84.7551 10.3346 84.7537 11.9012C84.7535 12.1106 84.7533 12.3199 84.7532 12.5293C85.1029 12.7984 85.4535 13.0667 85.8136 13.3232C86.0751 13.1517 86.2761 12.8358 86.6064 12.8061C85.8304 13.5447 85.0171 14.2477 84.208 14.9516C83.6001 14.3785 82.9786 13.8198 82.3776 13.24C82.1432 13.4505 81.9265 13.6798 81.7034 13.9014C81.6677 13.8598 81.5964 13.7774 81.5608 13.7358C81.8554 13.4081 82.1838 13.1127 82.4854 12.7909C82.4801 12.0643 82.4812 11.3376 82.4824 10.6111C82.4836 9.81808 82.4849 9.02517 82.4778 8.23249C82.3164 7.84874 82.0361 7.51591 81.8333 7.14914C81.5555 7.313 81.3536 7.65431 81.0081 7.6662C81.7933 6.94019 82.6144 6.25333 83.3954 5.52318L83.3954 5.52319ZM117.057 5.51469C116.33 6.14213 115.623 6.79078 114.9 7.4233C114.881 7.44166 114.86 7.45911 114.838 7.47672C114.767 7.53477 114.695 7.59446 114.705 7.69414C114.991 7.56338 115.21 7.33075 115.46 7.14566C115.811 7.54555 116.178 7.93271 116.513 8.34703C116.5 9.74157 116.505 11.1369 116.51 12.5315L116.51 12.5327C116.331 12.6711 116.151 12.8077 115.973 12.9462C116.544 13.6178 117.132 14.2758 117.699 14.9515C118.292 14.3767 118.881 13.7952 119.45 13.1966C119.229 12.9224 118.963 12.6736 118.785 12.3697C118.775 11.3262 118.777 10.2824 118.778 9.23872L118.778 9.23847C118.779 8.63049 118.78 8.02259 118.779 7.4148C118.904 7.28661 119.029 7.15841 119.152 7.02765C119.573 7.48952 119.981 7.9794 120.344 8.48542C120.352 9.24228 120.351 9.99972 120.35 10.7573L120.35 10.7584C120.349 11.3303 120.348 11.9023 120.351 12.474C120.385 12.6747 120.242 12.8005 120.103 12.9232C120.046 12.9728 119.99 13.0219 119.947 13.0752C120.475 13.6641 121.011 14.2452 121.556 14.8182C122.139 14.2927 122.704 13.7476 123.291 13.2271C123.073 12.9868 122.831 12.7712 122.616 12.5301C122.623 11.4055 122.622 10.281 122.621 9.1564C122.62 8.57612 122.62 7.99584 122.62 7.41556C122.748 7.2832 122.877 7.15246 123.006 7.02086C123.452 7.49113 123.884 7.97601 124.317 8.45902C124.317 8.91318 124.317 9.36744 124.317 9.82176C124.318 10.7306 124.318 11.6397 124.317 12.5488C124.186 12.6795 124.054 12.8094 123.918 12.9342C124.477 13.6228 125.079 14.2774 125.652 14.954C126.465 14.1959 127.282 13.4394 128.074 12.6591C128.025 12.6286 127.928 12.5683 127.879 12.5377C127.718 12.7143 127.548 12.8834 127.383 13.0556C127.069 12.7548 126.762 12.448 126.461 12.1353C126.467 11.3679 126.466 10.6005 126.465 9.8331C126.464 9.01965 126.463 8.2062 126.47 7.39275C126.645 7.25266 126.815 7.10493 126.989 6.96399C127.012 6.94421 127.037 6.92509 127.061 6.90582C127.168 6.82251 127.279 6.73638 127.259 6.58193C126.932 6.77805 126.637 7.02342 126.316 7.22803C125.792 6.65579 125.258 6.09288 124.74 5.51555C123.982 6.07845 123.238 6.66087 122.485 7.23142C121.948 6.66511 121.426 6.08524 120.893 5.51469C120.134 6.081 119.397 6.67701 118.629 7.23142C118.117 6.64814 117.578 6.08949 117.057 5.51469ZM132.919 9.64181C132.309 8.65353 131.739 7.63895 131.089 6.67871C131.088 7.23614 131.089 7.79371 131.089 8.35131L131.089 8.35461C131.09 9.21674 131.091 10.0789 131.085 10.9408C131.7 10.5137 132.301 10.0655 132.919 9.64181Z" fill="rgb(255,255,255)" fill-rule="evenodd" />
		<path id="Path 2347" d="M109.879 7.53627C110.625 6.85214 111.397 6.19431 112.151 5.51781C112.688 6.12895 113.209 6.75368 113.743 7.36737C114.02 7.15007 114.268 6.89202 114.576 6.71294C114.553 6.81054 114.526 6.91154 114.436 6.96673C114.206 7.15772 113.978 7.34955 113.746 7.53543C113.75 9.11848 113.74 10.7007 113.751 12.2837C114.053 12.6249 114.365 12.9594 114.647 13.3192C114.882 13.1758 115.077 12.9796 115.301 12.8202C115.349 12.8455 115.445 12.8957 115.492 12.9203C114.747 13.6197 113.974 14.2903 113.197 14.9531C112.681 14.3319 112.151 13.7207 111.623 13.1087C111.393 13.3175 111.202 13.5705 110.95 13.7521C110.914 13.719 110.843 13.6511 110.807 13.6172C111.031 13.405 111.243 13.1792 111.47 12.9687C111.487 11.5308 111.471 10.0912 111.478 8.65325C111.465 8.45292 111.529 8.2161 111.373 8.05652C111.097 7.71276 110.842 7.35115 110.548 7.02267C110.329 7.20017 110.121 7.39285 109.879 7.53627L109.879 7.53627Z" fill="rgb(255,255,255)" fill-rule="evenodd" />
	</g>
</svg>
