<svg viewBox="0 0 41.5146 41.5146" xmlns="http://www.w3.org/2000/svg" xmlns:xlink="http://www.w3.org/1999/xlink" width="41.514648" height="41.514648" fill="none" customFrame="#000000">
	<defs>
		<linearGradient id="paint_linear_1" x1="-7.39218044" x2="31.0078163" y1="31.0073395" y2="48.9073334" gradientUnits="userSpaceOnUse">
			<stop stop-color="rgb(255,255,255)" offset="0" stop-opacity="0.200000003" />
			<stop stop-color="rgb(255,255,255)" offset="1" stop-opacity="9.99999975e-05" />
		</linearGradient>
	</defs>
	<path id="Path 2341" d="M36.2368 20.7573L36.9224 20.7573C39.4544 20.7573 41.5147 22.8176 41.5147 25.3496C41.5147 27.5057 39.9833 29.3954 37.8751 29.8423L35.5069 30.3447L35.7541 31.5101C35.8204 31.8169 35.8536 32.1385 35.8536 32.4619L35.8536 33.1483C35.8536 35.6803 33.7933 37.7406 31.2613 37.7406C29.1052 37.7406 27.2164 36.2102 26.7685 34.1011L26.3822 32.2801L20.2946 33.5714L20.6578 35.2841C20.7242 35.591 20.7573 35.9125 20.7573 36.2359L20.7573 36.9224C20.7573 39.4544 18.6971 41.5147 16.1651 41.5147C14.009 41.5147 12.1201 39.9843 11.6723 37.8751L11.1699 35.5069L10.0046 35.7541C9.69132 35.8204 9.37067 35.8536 9.05187 35.8536L8.36633 35.8536C5.83433 35.8536 3.77407 33.7933 3.77407 31.2613C3.77407 29.1052 5.30543 27.2155 7.41361 26.7685L9.23453 26.3822L7.9433 20.2945L6.23053 20.6578C5.91725 20.7241 5.5966 20.7573 5.2778 20.7573L4.59226 20.7573C2.06026 20.7573 0 18.6971 0 16.1651C0 14.009 1.53136 12.1192 3.63953 11.6723L6.00775 11.1699L5.76059 10.0046C5.69426 9.69775 5.66109 9.37618 5.66109 9.05276L5.66109 8.36632C5.66109 5.83432 7.72135 3.77406 10.2534 3.77406C12.4094 3.77406 14.2983 5.30451 14.7461 7.41359L15.1324 9.23452L21.2201 7.94328L20.8568 6.23051C20.7905 5.92368 20.7573 5.60211 20.7573 5.2787L20.7573 4.59226C20.7573 2.06026 22.8176 0 25.3496 0C27.5057 0 29.3945 1.53045 29.8423 3.63954L30.3447 6.00776L31.51 5.7606C31.8233 5.69426 32.144 5.66109 32.4628 5.66109L33.1483 5.66109C35.6803 5.66109 37.7406 7.72135 37.7406 10.2534C37.7406 12.4094 36.2093 14.2992 34.101 14.7461L32.2801 15.1324L33.5713 21.2201L35.2841 20.8568C35.5974 20.7905 35.918 20.7573 36.2368 20.7573ZM17.0679 18.359L18.3591 24.4469L24.4469 23.1556L23.1557 17.0678L17.0679 18.359Z" fill="url(#paint_linear_1)" fill-rule="evenodd" />
</svg>
